<?xml version="1.0" encoding="UTF-8" standalone="no"?>
<!-- Created with Inkscape (http://www.inkscape.org/) -->

<svg
   xmlns:dc="http://purl.org/dc/elements/1.1/"
   xmlns:cc="http://creativecommons.org/ns#"
   xmlns:rdf="http://www.w3.org/1999/02/22-rdf-syntax-ns#"
   xmlns:svg="http://www.w3.org/2000/svg"
   xmlns="http://www.w3.org/2000/svg"
   xmlns:sodipodi="http://sodipodi.sourceforge.net/DTD/sodipodi-0.dtd"
   xmlns:inkscape="http://www.inkscape.org/namespaces/inkscape"
   width="512mm"
   height="512mm"
   viewBox="0 0 512 512"
   version="1.1"
   id="svg8"
   inkscape:version="0.92.4 (5da689c313, 2019-01-14)"
   sodipodi:docname="logolacteo.svg">
  <defs
     id="defs2" />
  <sodipodi:namedview
     id="base"
     pagecolor="#ffffff"
     bordercolor="#666666"
     borderopacity="1.0"
     inkscape:pageopacity="0.0"
     inkscape:pageshadow="2"
     inkscape:zoom="0.35"
     inkscape:cx="251.46415"
     inkscape:cy="902.79455"
     inkscape:document-units="mm"
     inkscape:current-layer="layer1"
     showgrid="false"
     inkscape:window-width="1920"
     inkscape:window-height="1008"
     inkscape:window-x="0"
     inkscape:window-y="0"
     inkscape:window-maximized="1"
     units="mm"
     inkscape:pagecheckerboard="true" />
  <metadata
     id="metadata5">
    <rdf:RDF>
      <cc:Work
         rdf:about="">
        <dc:format>image/svg+xml</dc:format>
        <dc:type
           rdf:resource="http://purl.org/dc/dcmitype/StillImage" />
        <dc:title />
      </cc:Work>
    </rdf:RDF>
  </metadata>
  <g
     inkscape:label="Capa 1"
     inkscape:groupmode="layer"
     id="layer1"
     transform="translate(0,214.99996)">
    <flowRoot
       xml:space="preserve"
       id="flowRoot815"
       style="font-style:normal;font-variant:normal;font-weight:bold;font-stretch:normal;font-size:40px;line-height:1.25;font-family:sans-serif;-inkscape-font-specification:'sans-serif Bold';letter-spacing:0px;word-spacing:0px;fill:#ffffff;fill-opacity:1;stroke:none"
       transform="matrix(0.50003737,0,0,0.50003737,-10.582645,191.68075)"><flowRegion
         id="flowRegion817"
         style="font-style:normal;font-variant:normal;font-weight:bold;font-stretch:normal;font-family:sans-serif;-inkscape-font-specification:'sans-serif Bold';fill:#ffffff"><rect
           id="rect819"
           width="382.85715"
           height="160"
           x="131.42857"
           y="116.8054"
           style="font-style:normal;font-variant:normal;font-weight:bold;font-stretch:normal;font-family:sans-serif;-inkscape-font-specification:'sans-serif Bold';fill:#ffffff" /></flowRegion><flowPara
         id="flowPara821" /></flowRoot>    <flowRoot
       xml:space="preserve"
       id="flowRoot823"
       style="font-style:normal;font-variant:normal;font-weight:bold;font-stretch:normal;font-size:40px;line-height:1.25;font-family:sans-serif;-inkscape-font-specification:'sans-serif Bold';letter-spacing:0px;word-spacing:0px;fill:#ffffff;fill-opacity:1;stroke:none"
       transform="matrix(0.50003737,0,0,0.50003737,-10.582645,191.68075)"><flowRegion
         id="flowRegion825"
         style="font-style:normal;font-variant:normal;font-weight:bold;font-stretch:normal;font-family:sans-serif;-inkscape-font-specification:'sans-serif Bold';fill:#ffffff"><rect
           id="rect827"
           width="468.57144"
           height="220"
           x="71.428574"
           y="153.94826"
           style="font-style:normal;font-variant:normal;font-weight:bold;font-stretch:normal;font-family:sans-serif;-inkscape-font-specification:'sans-serif Bold';fill:#ffffff" /></flowRegion><flowPara
         id="flowPara829" /></flowRoot>    <flowRoot
       xml:space="preserve"
       id="flowRoot831"
       style="font-style:normal;font-variant:normal;font-weight:normal;font-stretch:normal;font-size:40px;line-height:1.25;font-family:Damion;-inkscape-font-specification:Damion;letter-spacing:0px;word-spacing:0px;fill:#ffffff;fill-opacity:1;stroke:none"
       transform="matrix(2.0946259,0,0,2.0946259,-420.7176,-524.00207)"><flowRegion
         id="flowRegion833"
         style="font-style:normal;font-variant:normal;font-weight:normal;font-stretch:normal;font-family:Damion;-inkscape-font-specification:Damion;fill:#ffffff"><rect
           id="rect835"
           width="237.14285"
           height="180"
           x="208.57143"
           y="193.94826"
           style="font-style:normal;font-variant:normal;font-weight:normal;font-stretch:normal;font-family:Damion;-inkscape-font-specification:Damion;fill:#ffffff" /></flowRegion><flowPara
         id="flowPara843"
         style="font-style:normal;font-variant:normal;font-weight:normal;font-stretch:normal;line-height:0.25;font-family:Damion;-inkscape-font-specification:Damion;fill:#ffffff" /></flowRoot>    <flowRoot
       xml:space="preserve"
       id="flowRoot837"
       style="font-style:normal;font-weight:normal;font-size:192px;line-height:1.25;font-family:sans-serif;letter-spacing:0px;word-spacing:0px;fill:#ffffff;fill-opacity:1;stroke:none"
       transform="matrix(0.50003737,0,0,0.50003737,-10.582645,191.68075)"><flowRegion
         id="flowRegion839"
         style="font-size:192px;fill:#ffffff"><rect
           id="rect841"
           width="2739.5337"
           height="816.20325"
           x="96.97464"
           y="283.21881"
           style="font-size:192px;fill:#ffffff" /></flowRegion><flowPara
         id="flowPara844" /></flowRoot>    <text
       xml:space="preserve"
       style="font-style:normal;font-weight:normal;font-size:5.29206181px;line-height:1.25;font-family:sans-serif;letter-spacing:0px;word-spacing:0px;fill:#ffffff;fill-opacity:1;stroke:none;stroke-width:0.13230155"
       x="79.226631"
       y="-75.710556"
       id="text848"><tspan
         sodipodi:role="line"
         id="tspan846"
         x="79.226631"
         y="-71.02832"
         style="fill:#ffffff;stroke-width:0.13230155" /></text>
    <g
       aria-label="Socio"
       transform="rotate(-12.338337)"
       style="font-style:normal;font-weight:normal;font-size:155.95214844px;line-height:1.25;font-family:sans-serif;letter-spacing:0px;word-spacing:0px;fill:#ffffff;fill-opacity:1;stroke:none;stroke-width:0.81225073"
       id="text852">
      <path
         d="m 67.308474,-25.375543 q 2.208307,0 3.198237,1.827564 1.06608,1.751416 1.06608,4.035871 0,1.142228 -0.228446,1.979861 -0.228445,0.837634 -0.913782,1.599119 -0.685337,0.685337 -1.827564,1.370673 -1.142228,0.609188 -2.969792,1.370673 -4.264317,1.827565 -6.701069,4.4166141 -2.436752,2.5129008 -2.436752,5.0258016 0,1.5991187 1.066079,3.04594042 1.066079,1.44682169 3.350534,2.58904938 2.284456,1.0660791 5.863435,1.7514157 3.655129,0.6091881 8.757079,0.6091881 5.254247,0 9.975455,-1.2183762 4.721208,-1.2945247 8.224039,-3.57897996 3.57898,-2.28445534 5.63499,-5.40654424 2.132163,-3.1220889 2.132163,-6.7772169 0,-2.741347 -2.28446,-5.711139 -2.284456,-2.969792 -7.234109,-6.168029 -8.757078,-5.711138 -13.325989,-9.21397 -4.492762,-3.502831 -5.558841,-4.416613 -5.711138,-5.025802 -8.528633,-9.670861 -2.817495,-4.645059 -2.817495,-9.670861 0,-4.645059 2.208307,-9.061673 2.284455,-4.416613 6.09188,-8.300187 3.807426,-3.883574 8.757079,-7.15796 5.025802,-3.350534 10.432346,-5.711138 5.482693,-2.360604 10.965385,-3.655129 5.55884,-1.370673 10.50849,-1.370673 3.73128,0 6.85337,0.837634 3.19824,0.837633 5.55884,2.665197 2.36061,1.751416 3.65513,4.568911 1.37067,2.817495 1.37067,6.777217 0,5.711139 -3.27438,10.889237 -3.27439,5.178099 -9.97546,9.670861 -2.96979,2.05601 -5.48269,2.05601 -2.58905,0 -4.11202,-1.827564 -1.52297,-1.903713 -1.52297,-4.416614 0,-2.132158 1.21838,-4.264316 1.29452,-2.132159 4.11202,-3.655129 2.2083,-1.142228 3.88357,-3.04594 1.75142,-1.979862 1.75142,-3.807426 0,-1.751416 -1.21838,-2.284455 -1.14223,-0.53304 -2.8175,-0.53304 -3.19823,0 -7.00566,0.837634 -3.731275,0.761485 -7.538701,2.132158 -3.731277,1.370673 -7.310257,3.274386 -3.502831,1.903713 -6.244177,4.11202 -2.665198,2.208306 -4.340465,4.721207 -1.599119,2.436753 -1.599119,4.873505 0,1.675267 0.685336,3.122089 0.685337,1.446822 1.979862,2.893643 1.370673,1.446822 3.274386,3.045941 1.903712,1.52297 4.416613,3.350534 l 17.818752,13.173692 q 3.42668,2.512901 6.09188,4.949653 2.74135,2.360604 4.56891,4.797357 1.82757,2.360603 2.8175,4.797356 0.98993,2.436752 0.98993,5.178098 0,6.0918812 -3.19824,11.9553164 -3.12209,5.7872868 -8.98553,10.3561974 -5.78728,4.5689102 -14.011321,7.3864052 -8.147891,2.817495 -18.123345,2.817495 -9.290119,0 -15.838891,-1.52297 Q 52.68796,15.592355 48.499792,13.079454 44.311624,10.490405 42.407911,7.2160192 40.504199,3.8654847 40.504199,0.21035624 q 0,-3.80742554 1.903712,-7.69099954 1.979862,-3.9597227 5.482693,-7.4625537 3.57898,-3.502832 8.528633,-6.244178 4.949653,-2.741346 10.889237,-4.188168 z"
         style="font-style:normal;font-variant:normal;font-weight:normal;font-stretch:normal;font-family:Damion;-inkscape-font-specification:Damion;fill:#ffffff;stroke-width:0.81225073"
         id="path2699" />
      <path
         d="m 154.80311,-24.918652 q -3.57898,0 -6.92951,1.827564 -3.27439,1.751416 -5.86344,4.721208 -2.5129,2.893643 -4.03587,6.62492 -1.52297,3.6551286 -1.52297,7.5387027 0,1.4468216 0.22844,3.1982374 0.22845,1.6752672 0.91379,3.1982374 0.76148,1.4468217 2.13216,2.4367523 1.37067,0.9899306 3.65512,0.9899306 3.50284,0 6.77722,-1.8275642 3.35054,-1.9037127 5.93958,-4.8735046 2.58905,-3.0459404 4.11202,-6.8533659 1.52297,-3.8074257 1.52297,-7.6909997 0,-1.52297 -0.22844,-3.122089 -0.1523,-1.675267 -0.91378,-3.04594 -0.68534,-1.370673 -2.05601,-2.208307 -1.37068,-0.913782 -3.73128,-0.913782 z m 3.95972,-13.402138 q 2.89365,0 6.16803,0.761485 3.35054,0.761485 6.16803,2.58905 2.8175,1.827564 4.64506,4.873504 1.90371,2.969792 1.90371,7.386406 0,2.284455 -0.60918,5.254247 -0.60919,2.893643 -1.82757,6.091881 0.76149,0.913782 1.75142,1.294524 0.98993,0.3807429 2.13215,0.3807429 1.59912,0 3.50284,-0.9137819 1.97986,-0.913782 4.03587,-2.360604 2.05601,-1.446822 4.11202,-3.274386 2.05601,-1.827564 3.88357,-3.655128 1.82757,-1.827565 3.27439,-3.426683 1.52297,-1.675268 2.5129,-2.817495 0.53304,-0.53304 1.29452,-0.53304 1.06608,0 1.90372,1.142228 0.83763,1.066079 0.83763,3.04594 0,1.979862 -1.21838,4.568911 -1.14223,2.589049 -4.34046,5.406544 -1.82757,1.979861 -4.18817,4.5689107 -2.3606,2.5890493 -5.0258,4.8735046 -2.6652,2.28445531 -5.55884,3.88357402 -2.89365,1.59911868 -5.78729,1.59911868 -1.97986,0 -3.88357,-0.6091881 -1.82757,-0.609188 -3.73128,-1.97986121 -2.74135,4.26431651 -6.24418,7.76714801 -3.50283,3.5028313 -7.8433,6.0157323 -4.26431,2.512901 -9.29011,3.883574 -4.94966,1.446822 -10.58465,1.446822 -2.13216,0 -4.94965,-0.837634 -2.81749,-0.837634 -5.40654,-2.741346 -2.5129,-1.979862 -4.26432,-5.10195 -1.75142,-3.1220894 -1.75142,-7.6148514 0,-3.04594044 0.98993,-7.310257 0.98993,-4.2643166 2.9698,-8.7570786 2.05601,-4.568911 5.10195,-8.985524 3.12209,-4.492762 7.3864,-7.995594 4.26432,-3.57898 9.74701,-5.711138 5.48269,-2.208307 12.18376,-2.208307 z"
         style="font-style:normal;font-variant:normal;font-weight:normal;font-stretch:normal;font-family:Damion;-inkscape-font-specification:Damion;fill:#ffffff;stroke-width:0.81225073"
         id="path2701" />
      <path
         d="m 233.15993,-31.315127 q 0,2.360604 -0.53304,5.254247 -0.53304,2.817495 -1.75142,5.330396 -1.21837,2.512901 -3.12209,4.188168 -1.90371,1.675267 -4.7212,1.675267 -1.52298,0 -1.97987,-0.456891 -0.38074,-0.456891 -0.38074,-1.599119 0,-0.685336 0,-1.979861 0.0761,-1.370673 0.0761,-2.589049 0,-1.370673 -0.38074,-2.284455 -0.38075,-0.989931 -1.90372,-0.989931 -1.75141,0 -3.95972,1.370673 -2.13216,1.294525 -4.34046,3.426683 -2.13216,2.132158 -4.18817,4.873505 -2.05601,2.665198 -3.73128,5.4826924 -1.59912,2.7413464 -2.58905,5.3303957 -0.91378,2.5890494 -0.91378,4.41661363 0,2.66519787 1.82756,4.18816807 1.90372,1.5229702 5.10195,1.5229702 3.42669,0 7.31026,-1.1422277 3.88358,-1.1422276 7.691,-2.8936434 3.88358,-1.75141568 7.46256,-3.8074255 3.57898,-2.0560097 6.47262,-3.883574 2.96979,-1.9037127 4.94965,-3.1982374 1.97986,-1.370673 2.58905,-1.675267 1.21838,-0.609188 2.28446,-0.609188 0.91378,0 1.52297,0.456891 0.68533,0.380742 1.06608,0.9899304 0.38074,0.5330396 0.53304,1.2183762 0.15229,0.609188 0.15229,1.0660791 0,0.6853366 -0.15229,1.6752672 -0.1523,0.9137821 -1.14223,2.1321583 -0.38074,0.4568911 -2.5129,2.3606038 -2.05601,1.82756426 -5.40655,4.3404651 -3.27438,2.5129008 -7.61485,5.4065442 -4.26431,2.8174947 -9.21397,5.1780987 -4.8735,2.360604 -10.12775,3.883574 -5.25425,1.599119 -10.3562,1.599119 -3.88357,0 -6.92951,-1.218376 -2.96979,-1.218377 -5.0258,-3.274386 -2.05601,-2.132159 -3.12209,-4.9496535 -1.06608,-2.8174949 -1.06608,-5.9395838 0,-3.42668297 1.59912,-7.8432966 1.59912,-4.492762 4.41661,-9.1378211 2.8175,-4.645059 6.62492,-9.137821 3.80743,-4.492762 8.22404,-7.995594 4.49276,-3.502831 9.29012,-5.63499 4.8735,-2.132158 9.82316,-2.132158 1.67526,0 3.12209,0.380743 1.52297,0.380742 2.58904,1.218376 1.14223,0.761485 1.75142,2.132158 0.68534,1.370673 0.68534,3.274386 z"
         style="font-style:normal;font-variant:normal;font-weight:normal;font-stretch:normal;font-family:Damion;-inkscape-font-specification:Damion;fill:#ffffff;stroke-width:0.81225073"
         id="path2703" />
      <path
         d="m 257.67974,-48.829284 q 0,-1.751416 0.60919,-3.57898 0.68534,-1.903713 1.97986,-3.426683 1.29453,-1.52297 3.19824,-2.512901 1.97986,-0.989931 4.64506,-0.989931 4.41661,0 6.16803,1.751416 1.75141,1.675267 1.75141,4.264317 0,1.446821 -0.60919,3.198237 -0.53303,1.751416 -1.67526,3.274386 -1.14223,1.446822 -2.96979,2.436752 -1.82757,0.989931 -4.34047,0.989931 -4.72121,0 -6.62492,-1.446822 -1.90371,-1.52297 -2.13216,-3.959722 z m -8.37633,17.133415 q 1.29452,-2.132159 2.96979,-3.045941 1.67526,-0.913782 3.42668,-0.913782 2.89364,0 4.94965,1.903713 2.13216,1.827564 2.13216,4.721207 -0.0762,0.685337 -0.22844,1.370674 -0.0761,0.685336 -0.45689,1.370673 -1.06608,1.979861 -1.75142,3.350534 -0.68534,1.370673 -1.29452,2.58905 -0.53304,1.142227 -1.06608,2.284455 -0.53304,1.142227 -1.29453,2.741346 -0.91378,1.903713 -2.05601,4.188168 -1.14223,2.208307 -2.20831,4.5689108 -0.98993,2.3606039 -1.75141,4.6450592 -0.68534,2.28445526 -0.68534,4.188168 0,2.0560098 0.98993,2.7413464 1.06608,0.609188 2.96979,0.609188 2.13216,0 4.41662,-0.9137821 2.3606,-0.9137821 4.72121,-2.3606038 2.3606,-1.44682167 4.64506,-3.27438591 2.28445,-1.90371279 4.26431,-3.80742549 2.05601,-1.9037128 3.73128,-3.6551285 1.75141,-1.7514156 2.89364,-3.1220886 1.52297,-1.446822 3.04594,-1.446822 1.37068,0 2.20831,1.218376 0.91378,1.218376 0.91378,3.1220891 0,1.7514157 -0.91378,3.731277 -0.83763,1.9798612 -2.8175,3.731277 -3.88357,3.9597225 -7.91944,7.614851 -4.03587,3.5789799 -8.30019,6.3964749 -4.18817,2.741346 -8.45248,4.416613 -4.26432,1.675268 -8.60478,1.675268 -6.16803,0 -9.74701,-3.122089 -3.50284,-3.198238 -3.50284,-9.8993065 0,-3.5028315 0.98994,-6.85336591 0.98993,-3.35053449 2.3606,-6.47262339 1.37067,-3.1982372 2.89364,-6.0918812 1.52297,-2.969791 2.58905,-5.634989 0.38074,-0.989931 1.29453,-3.045941 0.98993,-2.056009 2.05601,-4.188168 1.21837,-2.512901 2.58905,-5.330395 z"
         style="font-style:normal;font-variant:normal;font-weight:normal;font-stretch:normal;font-family:Damion;-inkscape-font-specification:Damion;fill:#ffffff;stroke-width:0.81225073"
         id="path2705" />
      <path
         d="m 305.04412,-24.918652 q -3.57898,0 -6.92952,1.827564 -3.27439,1.751416 -5.86343,4.721208 -2.51291,2.893643 -4.03588,6.62492 -1.52297,3.6551286 -1.52297,7.5387027 0,1.4468216 0.22845,3.1982374 0.22845,1.6752672 0.91378,3.1982374 0.76149,1.4468217 2.13216,2.4367523 1.37067,0.9899306 3.65513,0.9899306 3.50283,0 6.77722,-1.8275642 3.35053,-1.9037127 5.93958,-4.8735046 2.58905,-3.0459404 4.11202,-6.8533659 1.52297,-3.8074257 1.52297,-7.6909997 0,-1.52297 -0.22845,-3.122089 -0.15229,-1.675267 -0.91378,-3.04594 -0.68533,-1.370673 -2.05601,-2.208307 -1.37067,-0.913782 -3.73127,-0.913782 z m 3.95972,-13.402138 q 2.89364,0 6.16803,0.761485 3.35053,0.761485 6.16803,2.58905 2.81749,1.827564 4.64506,4.873504 1.90371,2.969792 1.90371,7.386406 0,2.284455 -0.60919,5.254247 -0.60919,2.893643 -1.82756,6.091881 0.76148,0.913782 1.75141,1.294524 0.98993,0.3807429 2.13216,0.3807429 1.59912,0 3.50283,-0.9137819 1.97986,-0.913782 4.03587,-2.360604 2.05601,-1.446822 4.11202,-3.274386 2.05601,-1.827564 3.88358,-3.655128 1.82756,-1.827565 3.27438,-3.426683 1.52297,-1.675268 2.5129,-2.817495 0.53304,-0.53304 1.29453,-0.53304 1.06608,0 1.90371,1.142228 0.83763,1.066079 0.83763,3.04594 0,1.979862 -1.21837,4.568911 -1.14223,2.589049 -4.34047,5.406544 -1.82756,1.979861 -4.18817,4.5689107 -2.3606,2.5890493 -5.0258,4.8735046 -2.6652,2.28445531 -5.55884,3.88357402 -2.89364,1.59911868 -5.78729,1.59911868 -1.97986,0 -3.88357,-0.6091881 -1.82756,-0.609188 -3.73128,-1.97986121 -2.74134,4.26431651 -6.24417,7.76714801 -3.50284,3.5028313 -7.8433,6.0157323 -4.26432,2.512901 -9.29012,3.883574 -4.94965,1.446822 -10.58464,1.446822 -2.13216,0 -4.94965,-0.837634 -2.8175,-0.837634 -5.40655,-2.741346 -2.5129,-1.979862 -4.26432,-5.10195 -1.75141,-3.1220894 -1.75141,-7.6148514 0,-3.04594044 0.98993,-7.310257 0.98993,-4.2643166 2.96979,-8.7570786 2.05601,-4.568911 5.10195,-8.985524 3.12209,-4.492762 7.38641,-7.995594 4.26431,-3.57898 9.74701,-5.711138 5.48269,-2.208307 12.18376,-2.208307 z"
         style="font-style:normal;font-variant:normal;font-weight:normal;font-stretch:normal;font-family:Damion;-inkscape-font-specification:Damion;fill:#ffffff;stroke-width:0.81225073"
         id="path2707" />
    </g>
    <g
       aria-label="Lácteo"
       transform="rotate(-11.493447)"
       style="font-style:normal;font-weight:normal;font-size:155.95214844px;line-height:1.25;font-family:sans-serif;letter-spacing:0px;word-spacing:0px;fill:#ffffff;fill-opacity:1;stroke:none;stroke-width:0.81225073"
       id="text852-5">
      <path
         d="m 14.594904,135.88867 q 0,0.98993 1.066079,2.05601 1.066079,0.98993 3.274386,1.90371 2.284455,0.91379 5.787287,1.52298 3.57898,0.53303 8.528633,0.60918 -2.284455,-1.21837 -4.645059,-2.5129 -2.284456,-1.37067 -4.416614,-2.43675 -2.132158,-1.14223 -3.883574,-1.82756 -1.751416,-0.76149 -2.969792,-0.76149 -2.741346,0 -2.741346,1.44682 z M 82.290929,51.135381 q 1.142228,-2.284456 2.741347,-4.035871 1.599118,-1.751416 3.426683,-2.893644 1.827564,-1.142227 3.731277,-1.675267 1.903712,-0.609188 3.57898,-0.609188 2.436752,0 4.112019,1.294525 1.675265,1.218376 1.675265,3.655128 0,1.903713 -0.98993,4.11202 -4.264315,9.137821 -8.680928,18.427939 -4.416614,9.21397 -8.909376,18.047197 -4.416614,8.833227 -8.68093,17.05727 -4.264317,8.14789 -8.224039,15.15355 -3.959723,7.00566 -7.462554,12.5645 -3.426683,5.55885 -6.244178,9.21397 6.62492,-0.45689 12.107613,-1.21837 5.482693,-0.76149 10.584643,-1.75142 5.10195,-0.98993 10.2039,-2.13216 5.178099,-1.21837 11.117683,-2.43675 0.380742,-0.1523 0.837633,-0.22844 0.456891,-0.0762 0.837634,-0.0762 2.360599,0 3.731279,1.90371 1.37067,1.82756 1.37067,4.18817 0,1.44682 -2.74135,3.12209 -2.741342,1.59912 -7.538698,3.19823 -4.721207,1.59912 -11.193831,3.12209 -6.396475,1.44682 -13.859029,2.58905 -7.462554,1.06608 -15.610444,1.67527 -8.147891,0.68534 -16.219633,0.68534 -9.366266,0 -16.143484,-1.29453 -6.777217,-1.29452 -11.1938308,-3.57898 -4.3404651,-2.28445 -6.4726234,-5.40654 -2.05600975,-3.12209 -2.05600975,-6.77722 0,-3.57898 1.29452465,-6.01573 1.3706732,-2.5129 3.6551285,-4.03587 2.3606038,-1.52297 5.4826928,-2.20831 3.198237,-0.68534 6.853366,-0.68534 2.969792,0 6.168029,1.06608 3.198238,1.06608 6.244178,2.8175 3.122089,1.67526 5.863435,3.80742 2.817495,2.05601 4.873505,4.18817 1.751416,-4.56891 4.188168,-10.2039 2.512901,-5.63499 5.406544,-11.80302 2.893643,-6.24418 6.091881,-12.7168 3.198237,-6.548772 6.396475,-12.869098 3.198237,-6.320326 6.244178,-12.183761 3.04594,-5.863436 5.634989,-10.73694 2.58905,-4.873505 4.568911,-8.604782 2.05601,-3.731277 3.198237,-5.711138 z"
         style="font-style:normal;font-variant:normal;font-weight:normal;font-stretch:normal;font-family:Damion;-inkscape-font-specification:Damion;fill:#ffffff;stroke-width:0.81225073"
         id="path2686" />
      <path
         d="m 128.43693,110.22662 q -3.57898,0 -6.92952,1.82757 -3.35053,1.82756 -5.93958,4.79735 -2.58905,2.9698 -4.11202,6.70107 -1.52297,3.65513 -1.52297,7.38641 0,1.52297 0.1523,3.19824 0.22844,1.59912 0.91378,2.96979 0.68533,1.37067 1.90371,2.28445 1.29453,0.91379 3.42668,0.91379 1.67527,0 3.88358,-1.44683 2.28445,-1.52297 4.64506,-3.80742 2.43675,-2.36061 4.7212,-5.10195 2.28446,-2.8175 4.11202,-5.48269 1.82757,-2.6652 2.9698,-4.79736 1.14222,-2.13216 1.14222,-3.12209 0,-1.44682 -0.98993,-2.58905 -0.98993,-1.21837 -2.43675,-2.05601 -1.44682,-0.83763 -3.12209,-1.21837 -1.59912,-0.4569 -2.81749,-0.4569 z m 52.77091,19.64632 q -1.37067,1.29452 -3.65512,3.57898 -2.28446,2.28446 -5.25425,4.94965 -2.89364,2.6652 -6.24418,5.40655 -3.27439,2.6652 -6.77722,4.8735 -3.42668,2.20831 -6.77721,3.57898 -3.35054,1.44682 -6.32033,1.44682 -2.6652,0 -4.56891,-1.14222 -1.90371,-1.14223 -3.19824,-2.9698 -1.21837,-1.82756 -1.82756,-4.11202 -0.60919,-2.3606 -0.60919,-4.79735 0,-1.59912 0.22844,-3.12209 0.22845,-1.59912 0.76149,-2.96979 -2.3606,3.19824 -5.40654,6.62492 -2.9698,3.35053 -6.47263,6.16803 -3.42668,2.74134 -7.23411,4.49276 -3.73127,1.82756 -7.61485,1.82756 -1.97986,0 -4.64506,-0.83763 -2.58905,-0.76149 -4.94965,-2.58905 -2.360603,-1.82756 -3.959722,-4.72121 -1.599119,-2.89364 -1.599119,-7.08181 0,-3.12209 0.913783,-7.46255 0.98993,-4.34047 2.893643,-8.98553 1.979865,-4.7212 4.949655,-9.29011 3.04594,-4.56892 7.15796,-8.1479 4.11202,-3.65512 9.36626,-5.863431 5.25425,-2.284455 11.72688,-2.284455 3.35053,0 5.86343,0.837634 2.5129,0.837633 4.26432,1.827564 1.97986,1.218378 3.50283,2.665198 1.29452,-0.68534 2.6652,-1.29452 1.14222,-0.533044 2.3606,-0.913787 1.29452,-0.456891 2.20831,-0.456891 2.89364,0 4.7212,1.599118 1.82757,1.59912 1.82757,3.50283 0,0.53304 -0.0761,0.83764 -0.38074,1.44682 -1.21838,3.65512 -0.76148,2.20831 -1.75141,4.94966 -0.98993,2.6652 -2.05601,5.63499 -0.98993,2.89364 -1.82757,5.71114 -0.83763,2.81749 -1.37067,5.33039 -0.53304,2.43675 -0.53304,4.18817 0,2.28445 0.76149,3.80742 0.76148,1.44683 2.58905,1.44683 1.14222,0 2.66519,-0.68534 1.59912,-0.76149 3.42669,-1.97986 1.82756,-1.21838 3.73127,-2.74135 1.97987,-1.59912 3.80743,-3.19824 4.26432,-3.80742 9.06167,-8.68093 1.21838,-0.98993 2.36061,-0.98993 1.52297,0 2.5129,1.52297 1.06608,1.44683 1.06608,3.27439 0,2.13216 -1.44683,3.57898 z M 142.14366,80.071815 q 2.74134,-4.797357 5.48269,-9.518564 2.8175,-4.721208 5.48269,-9.518564 2.89365,-4.797356 5.93959,-6.777217 3.04594,-1.979862 5.48269,-1.979862 2.28446,0 3.73128,1.446822 1.44682,1.446822 1.44682,3.807426 0,1.52297 -0.68534,3.350534 -0.68533,1.827564 -2.43675,3.807426 -4.11202,4.797356 -8.30019,9.518563 -4.11202,4.721208 -8.22404,9.518564 -1.97986,2.589049 -4.18816,3.883574 -2.20831,1.294525 -3.73128,1.294525 -2.36061,0 -2.36061,-2.436753 0,-2.208306 2.36061,-6.396474 z"
         style="font-style:normal;font-variant:normal;font-weight:normal;font-stretch:normal;font-family:Damion;-inkscape-font-specification:Damion;fill:#ffffff;stroke-width:0.81225073"
         id="path2688" />
      <path
         d="m 214.40859,103.44941 q 0,2.3606 -0.53304,5.25424 -0.53304,2.8175 -1.75141,5.3304 -1.21838,2.5129 -3.12209,4.18817 -1.90372,1.67527 -4.72121,1.67527 -1.52297,0 -1.97986,-0.4569 -0.38074,-0.45689 -0.38074,-1.59911 0,-0.68534 0,-1.97987 0.0761,-1.37067 0.0761,-2.58905 0,-1.37067 -0.38074,-2.28445 -0.38074,-0.98993 -1.90371,-0.98993 -1.75142,0 -3.95972,1.37067 -2.13216,1.29453 -4.34047,3.42669 -2.13216,2.13215 -4.18817,4.8735 -2.05601,2.6652 -3.73127,5.48269 -1.59912,2.74135 -2.58905,5.3304 -0.91379,2.58905 -0.91379,4.41661 0,2.6652 1.82757,4.18817 1.90371,1.52297 5.10195,1.52297 3.42668,0 7.31026,-1.14223 3.88357,-1.14223 7.691,-2.89364 3.88357,-1.75142 7.46255,-3.80743 3.57898,-2.05601 6.47262,-3.88357 2.96979,-1.90371 4.94966,-3.19824 1.97986,-1.37067 2.58904,-1.67527 1.21838,-0.60918 2.28446,-0.60918 0.91378,0 1.52297,0.45689 0.68534,0.38074 1.06608,0.98993 0.38074,0.53304 0.53304,1.21837 0.1523,0.60919 0.1523,1.06608 0,0.68534 -0.1523,1.67527 -0.1523,0.91378 -1.14223,2.13216 -0.38074,0.45689 -2.5129,2.3606 -2.05601,1.82757 -5.40654,4.34047 -3.27439,2.5129 -7.61485,5.40654 -4.26432,2.8175 -9.21397,5.1781 -4.87351,2.3606 -10.12776,3.88357 -5.25424,1.59912 -10.35619,1.59912 -3.88358,0 -6.92952,-1.21837 -2.96979,-1.21838 -5.0258,-3.27439 -2.05601,-2.13216 -3.12209,-4.94965 -1.06608,-2.8175 -1.06608,-5.93959 0,-3.42668 1.59912,-7.84329 1.59912,-4.49276 4.41661,-9.13782 2.8175,-4.64506 6.62493,-9.13782 3.80742,-4.49277 8.22403,-7.9956 4.49277,-3.50283 9.29012,-5.634988 4.87351,-2.132158 9.82316,-2.132158 1.67527,0 3.12209,0.380743 1.52297,0.380742 2.58905,1.218376 1.14223,0.761485 1.75141,2.132157 0.68534,1.37067 0.68534,3.27439 z"
         style="font-style:normal;font-variant:normal;font-weight:normal;font-stretch:normal;font-family:Damion;-inkscape-font-specification:Damion;fill:#ffffff;stroke-width:0.81225073"
         id="path2690" />
      <path
         d="m 243.26887,109.46514 q -2.81749,5.48269 -5.33039,10.73694 -2.51291,5.1781 -4.72121,9.59471 -0.91378,1.82757 -1.82757,4.26432 -0.83763,2.3606 -0.83763,4.18817 0,1.06608 0.45689,1.67526 0.53304,0.60919 1.67527,0.60919 1.59912,0 4.03587,-0.91378 2.43675,-0.98993 5.25425,-2.5129 2.81749,-1.59912 5.93958,-3.57898 3.12209,-2.05601 6.09188,-4.18817 3.04594,-2.20831 5.78729,-4.34046 2.74134,-2.20831 4.8735,-4.03588 1.21838,-0.83763 2.28446,-0.83763 1.29452,0 2.13216,1.14223 0.83763,1.14223 0.83763,2.89364 0,1.75142 -0.83763,3.57898 -0.83764,1.82757 -3.04594,3.57898 -4.94966,4.49276 -10.05161,8.52863 -5.0258,4.03588 -10.0516,7.15796 -4.94965,3.04595 -9.82316,4.87351 -4.8735,1.82756 -9.44241,1.82756 -3.04594,0 -5.10195,-0.83763 -2.05601,-0.76149 -3.35054,-2.13216 -1.21838,-1.44682 -1.75141,-3.27438 -0.53304,-1.90372 -0.53304,-4.03588 0,-3.80742 1.29452,-7.91944 1.29453,-4.11202 2.89364,-7.38641 2.28446,-4.7212 4.49277,-9.36626 2.28445,-4.64506 4.41661,-8.90938 h -3.27439 q -4.26431,0 -5.86343,-1.37067 -1.59912,-1.37067 -1.59912,-3.12209 0,-0.76149 0.45689,-1.82756 0.53304,-1.14223 1.44682,-2.05601 0.98993,-0.98993 2.36061,-1.675271 1.37067,-0.685337 3.12209,-0.685337 h 8.22403 l 16.06734,-31.906226 q 1.52297,-2.893643 3.73128,-4.112019 2.28445,-1.294525 4.7212,-1.294525 2.28446,0 4.18817,1.218376 1.90372,1.218376 1.90372,4.035871 0,1.446822 -0.68534,2.969792 -0.60919,1.446822 -1.67527,3.426683 -0.68534,1.294525 -1.67527,3.122089 -0.98993,1.751416 -2.13215,3.807426 -1.06608,1.979861 -2.28446,4.188168 -1.14223,2.208306 -2.28445,4.264316 -2.58905,4.873505 -5.4827,10.280049 h 24.82442 q 1.82756,0 3.35053,0.228446 1.52297,0.152297 2.58905,0.761482 1.14223,0.53304 1.75142,1.52297 0.60918,0.98993 0.60918,2.6652 0,0.83763 -0.30459,1.67527 -0.22845,0.83763 -0.98993,1.52297 -0.68534,0.68533 -1.97986,1.14223 -1.21838,0.45689 -3.19824,0.60918 z"
         style="font-style:normal;font-variant:normal;font-weight:normal;font-stretch:normal;font-family:Damion;-inkscape-font-specification:Damion;fill:#ffffff;stroke-width:0.81225073"
         id="path2692" />
      <path
         d="m 292.23236,106.87609 q -0.38075,-0.0761 -0.68534,-0.0761 -0.3046,0 -0.68534,0 -2.89364,0 -5.40654,1.14223 -2.5129,1.14223 -4.64506,3.04594 -2.05601,1.82756 -3.73128,4.18817 -1.59912,2.3606 -2.89364,4.72121 -1.29453,2.28445 -2.20831,4.41661 -0.83763,2.13216 -1.29452,3.57898 2.66519,-1.37067 5.48269,-3.12209 2.89364,-1.75142 5.40654,-3.35053 2.5129,-1.59912 4.34047,-2.89365 1.90371,-1.29452 2.6652,-1.75141 3.42668,-2.13216 4.7212,-3.95973 1.29453,-1.90371 1.29453,-3.27438 0,-1.14223 -0.76149,-1.82757 -0.68533,-0.68533 -1.59911,-0.83763 z m 2.74134,-10.508494 q 6.32033,0 9.44242,3.04594 3.12209,3.045944 3.12209,8.452484 0,3.19824 -1.67527,6.70107 -1.67527,3.50283 -5.78729,7.15796 -4.11202,3.57898 -11.04153,7.3864 -6.85337,3.73128 -17.20957,7.53871 0.38075,2.2083 2.36061,3.50283 1.97986,1.21838 5.25425,1.21838 3.50283,0 7.46255,-0.98994 4.03587,-1.06607 7.91944,-2.66519 3.95973,-1.59912 7.691,-3.42669 3.73128,-1.90371 6.70107,-3.57898 3.04594,-1.67526 5.0258,-2.89364 2.05601,-1.21838 2.74135,-1.52297 0.68534,-0.45689 1.21838,-0.53304 0.60919,-0.0761 1.06608,-0.0761 0.91378,0 1.52297,0.45689 0.60918,0.38075 0.98993,0.98993 0.45689,0.53304 0.60919,1.21838 0.15229,0.60919 0.15229,1.06608 0,0.68534 -0.15229,1.67527 -0.1523,0.91378 -1.14223,2.13215 -0.38075,0.38075 -2.58905,2.05601 -2.13216,1.67527 -5.55884,3.95973 -3.42669,2.28445 -7.9956,4.8735 -4.49276,2.5129 -9.59471,4.64506 -5.0258,2.13216 -10.50849,3.50283 -5.4827,1.44682 -10.81309,1.44682 -4.56891,0 -8.14789,-1.75141 -3.50283,-1.75142 -6.01573,-4.72121 -2.43676,-2.96979 -3.73128,-6.85337 -1.29453,-3.88357 -1.29453,-8.14789 0,-3.27438 1.29453,-7.15796 1.29452,-3.95972 3.73128,-7.91944 2.43675,-3.95972 5.93958,-7.691 3.57898,-3.80743 7.99559,-6.70107 4.41662,-2.893643 9.67086,-4.645059 5.3304,-1.751415 11.34613,-1.751415 z"
         style="font-style:normal;font-variant:normal;font-weight:normal;font-stretch:normal;font-family:Damion;-inkscape-font-specification:Damion;fill:#ffffff;stroke-width:0.81225073"
         id="path2694" />
      <path
         d="m 343.55645,109.84588 q -3.57898,0 -6.92951,1.82757 -3.27439,1.75141 -5.86344,4.7212 -2.5129,2.89365 -4.03587,6.62492 -1.52297,3.65513 -1.52297,7.53871 0,1.44682 0.22845,3.19823 0.22844,1.67527 0.91378,3.19824 0.76148,1.44682 2.13216,2.43675 1.37067,0.98993 3.65512,0.98993 3.50284,0 6.77722,-1.82756 3.35054,-1.90371 5.93959,-4.8735 2.58904,-3.04594 4.11202,-6.85337 1.52297,-3.80743 1.52297,-7.691 0,-1.52297 -0.22845,-3.12209 -0.1523,-1.67527 -0.91378,-3.04594 -0.68534,-1.37067 -2.05601,-2.20831 -1.37068,-0.91378 -3.73128,-0.91378 z m 3.95972,-13.402136 q 2.89365,0 6.16803,0.761485 3.35054,0.761485 6.16803,2.58905 2.8175,1.827561 4.64506,4.873501 1.90371,2.9698 1.90371,7.38641 0,2.28445 -0.60918,5.25425 -0.60919,2.89364 -1.82757,6.09188 0.76149,0.91378 1.75142,1.29452 0.98993,0.38074 2.13216,0.38074 1.59911,0 3.50283,-0.91378 1.97986,-0.91378 4.03587,-2.3606 2.05601,-1.44682 4.11202,-3.27439 2.05601,-1.82756 3.88357,-3.65513 1.82757,-1.82756 3.27439,-3.42668 1.52297,-1.67527 2.5129,-2.81749 0.53304,-0.53304 1.29452,-0.53304 1.06608,0 1.90372,1.14222 0.83763,1.06608 0.83763,3.04594 0,1.97987 -1.21838,4.56891 -1.14222,2.58905 -4.34046,5.40655 -1.82757,1.97986 -4.18817,4.56891 -2.3606,2.58905 -5.0258,4.8735 -2.6652,2.28446 -5.55884,3.88358 -2.89365,1.59912 -5.78729,1.59912 -1.97986,0 -3.88357,-0.60919 -1.82757,-0.60919 -3.73128,-1.97986 -2.74135,4.26431 -6.24418,7.76715 -3.50283,3.50283 -7.84329,6.01573 -4.26432,2.5129 -9.29012,3.88357 -4.94966,1.44682 -10.58465,1.44682 -2.13215,0 -4.94965,-0.83763 -2.81749,-0.83763 -5.40654,-2.74135 -2.5129,-1.97986 -4.26432,-5.10195 -1.75142,-3.12209 -1.75142,-7.61485 0,-3.04594 0.98993,-7.31025 0.98994,-4.26432 2.9698,-8.75708 2.05601,-4.56891 5.10195,-8.98553 3.12209,-4.49276 7.3864,-7.99559 4.26432,-3.57898 9.74701,-5.711139 5.48269,-2.208307 12.18376,-2.208307 z"
         style="font-style:normal;font-variant:normal;font-weight:normal;font-stretch:normal;font-family:Damion;-inkscape-font-specification:Damion;fill:#ffffff;stroke-width:0.81225073"
         id="path2696" />
    </g>
    <g
       id="g96"
       transform="matrix(2.3903173,0,0,-2.3903173,419.48018,114.15088)"
       style="fill:#ffffff">
      <path
         d="m -4.568033,3.2445987 c -8.076688,-1.3965846 -16.060723,-3.10502786 -23.876399,-5.371653 -5.789724,-1.6835849 -11.618996,-3.2971147 -17.382732,-5.0349359 -5.933224,-1.7988371 -11.800913,-3.7411748 -17.70702,-5.5931178 -5.056404,-1.580762 -10.113939,-3.158134 -15.191812,-4.698219 -4.68579,-1.403364 -9.404347,-2.755882 -14.112735,-4.118569 -3.986368,-1.149131 -7.950139,-2.359278 -11.985089,-3.370559 -4.705,-1.1706 -9.4665,-2.215779 -14.23025,-3.189772 -7.3106,-1.523136 -14.66866,-2.64176 -22.0753,-2.538937 -3.97846,0.05198 -7.82359,0.398863 -11.30149,1.505057 -3.79428,1.215797 -6.55016,3.178473 -8.60323,5.617976 -0.57852,0.677954 -1.1254,1.384156 -1.56494,2.124255 -1.05648,1.770589 -1.65421,3.644001 -1.4384,5.681252 0.0215,0.160449 -0.21242,0.310729 -0.32315,0.465528 -0.22034,-0.09378 -0.50734,-0.164968 -0.64067,-0.305079 -1.00337,-0.946875 -2.14459,-1.857593 -2.90729,-2.876783 -2.9717,-3.989758 -3.79202,-8.063129 -2.83611,-12.122942 0.33785,-1.442911 0.75705,-2.895992 1.52201,-4.202183 0.96043,-1.674545 1.99657,-3.371689 3.5649,-4.745675 3.60559,-3.158135 8.64843,-5.022507 14.59974,-5.910627 4.31743,-0.645186 8.76368,-0.912977 13.35342,-0.607898 3.92649,0.259882 7.8654,0.43163 11.77041,0.941226 9.81677,1.281332 19.39286,3.449654 28.611905,6.673324 5.289169,1.836124 10.646133,3.560386 15.874285,5.489165 6.700442,2.463231 13.298062,5.080132 19.936358,7.642797 6.493666,2.511819 12.964734,5.050755 19.475349,7.542235 3.598804,1.381895 7.205518,2.766051 10.873247,4.019135 4.493703,1.540085 9.017914,3.032713 13.603141,4.3784511 4.97618,1.4688996 9.9952967,2.8993819 15.0867288,4.0778913 9.0393823,2.0926171 18.1409102,3.1716933 27.1486552,2.2361172 3.453044,-0.3559256 5.821362,-1.5491241 6.362595,-4.0157456 0.131071,-0.6304969 0.137851,-1.2994112 0.205646,-1.9378175 0.04294,-0.4406699 0.09717,-0.87908 0.157059,-1.4609905 1.527656,0.9717339 3.204461,3.4937216 3.564907,4.9581015 0.884729,3.555867 -1.32766,6.01118925 -5.221374,7.6642663 C 24.084549,4.5632186 17.390886,5.2343927 10.365027,4.9677309 5.3899765,4.7688645 0.39910755,4.0988203 -4.568033,3.2445987"
         style="fill:#ffffff;fill-opacity:1;fill-rule:nonzero;stroke:none;stroke-width:1.12992275"
         id="path98"
         inkscape:connector-curvature="0" />
    </g>
    <g
       id="g100"
       transform="matrix(2.700874,0,0,-2.700874,440.00633,144.54261)"
       style="fill:#ffffff">
      <path
         d="m 0,0 c -13.594,-1.836 -26.581,-5.446 -38.998,-10.483 -6.081,-2.462 -11.941,-5.249 -17.127,-8.73 -4,-2.678 -7.676,-5.556 -9.646,-9.283 -0.771,-1.459 -1.505,-2.916 -1.161,-4.372 0.23,-0.998 0.598,-2.134 1.454,-2.837 3.103,-2.533 9.004,-1.918 12.051,-0.135 1.929,1.116 3.775,2.362 5.421,3.697 4.101,3.318 8.017,6.746 12.086,10.084 2.121,1.74 4.258,3.496 6.639,5.035 2.731,1.753 5.642,3.392 8.661,4.87 4.207,2.053 8.477,4.115 12.94,5.804 5.434,2.05 11.101,3.705 16.664,5.538 0.702,0.234 1.402,0.484 2.097,0.729 0.006,0.094 0.008,0.172 0.011,0.258 C 10.473,0.296 9.873,0.524 9.234,0.502 6.165,0.39 3.057,0.417 0,0"
         style="fill:#ffffff;fill-opacity:1;fill-rule:nonzero;stroke:none"
         id="path102"
         inkscape:connector-curvature="0" />
    </g>
    <g
       id="g7927"
       transform="matrix(3.1234721,0,0,-3.1234721,-1185.5361,2289.1473)"
       style="fill:#ffffff">
      <g
         transform="translate(510.5205,775.5889)"
         id="g3202"
         style="fill:#ffffff">
        <path
           inkscape:connector-curvature="0"
           id="path3204"
           style="fill:#ffffff;fill-opacity:1;fill-rule:nonzero;stroke:none"
           d="m 0,0 c 2.737,0.847 5.546,1.262 8.407,1.378 2.314,0.093 4.614,-0.029 6.906,-0.337 0.696,-0.093 1.385,-0.204 2.108,-0.311 0.291,1.767 0.578,3.498 0.868,5.247 -0.18,0.049 -0.32,0.094 -0.462,0.127 C 15.87,6.565 13.889,6.832 11.885,6.95 9.102,7.112 6.334,6.989 3.602,6.479 -0.399,5.729 -4.192,4.345 -7.777,2.412 c -1.724,-0.93 -3.353,-2.008 -4.708,-3.438 -0.149,-0.153 -0.249,-0.393 -0.28,-0.604 -0.252,-1.865 -0.489,-3.73 -0.72,-5.598 -0.092,-0.722 -0.17,-1.448 -0.266,-2.253 0.112,0.1 0.169,0.136 0.209,0.185 1.098,1.443 2.379,2.706 3.781,3.851 C -6.832,-3.051 -3.639,-1.126 0,0" />
      </g>
      <g
         transform="translate(538.0703,768.6934)"
         id="g3206"
         style="fill:#ffffff">
        <path
           inkscape:connector-curvature="0"
           id="path3208"
           style="fill:#ffffff;fill-opacity:1;fill-rule:nonzero;stroke:none"
           d="m 0,0 c -3.645,-4.4 -8.186,-7.496 -13.618,-9.254 -2.452,-0.793 -4.988,-1.139 -7.559,-1.293 -2.612,-0.16 -5.208,-0.046 -7.799,0.328 -0.628,0.091 -1.256,0.18 -1.918,0.274 -0.288,-1.757 -0.569,-3.475 -0.856,-5.227 0.201,-0.053 0.328,-0.088 0.462,-0.12 1.981,-0.464 3.991,-0.733 6.025,-0.847 2.77,-0.155 5.524,-0.015 8.241,0.487 3.77,0.699 7.352,2.002 10.758,3.759 1.887,0.973 3.673,2.104 5.164,3.639 0.202,0.206 0.342,0.529 0.38,0.817 0.264,1.863 0.49,3.731 0.726,5.597 0.082,0.666 0.154,1.332 0.227,1.998 C 0.101,0.119 0.051,0.059 0,0" />
      </g>
      <g
         transform="translate(510.5059,768.5303)"
         id="g3210"
         style="fill:#ffffff">
        <path
           inkscape:connector-curvature="0"
           id="path3212"
           style="fill:#ffffff;fill-opacity:1;fill-rule:nonzero;stroke:none"
           d="M 0,0 C 0.437,0.387 0.958,0.522 1.519,0.308 2.134,0.072 2.356,-0.457 2.402,-1.052 2.465,-1.906 2.112,-2.602 1.426,-3.097 0.594,-3.698 -0.576,-3.058 -0.689,-1.962 -0.7,-1.853 -0.691,-1.743 -0.691,-1.634 -0.706,-0.985 -0.478,-0.427 0,0 m -1.344,-5.636 c 0.008,0.393 0.064,0.782 0.099,1.174 0.591,-0.096 1.147,-0.221 1.712,-0.271 2.017,-0.185 3.645,1.025 3.963,3.021 0.211,1.344 -0.018,2.414 -1.242,3.122 -1.121,0.646 -2.319,0.819 -3.582,0.387 -2.585,-0.882 -3.352,-3.65 -1.577,-5.714 0.079,-0.09 0.146,-0.187 0.221,-0.28 -0.782,-0.568 -2.227,-0.929 -3.367,-0.845 -0.655,0.047 -1.209,0.315 -1.654,0.796 -0.916,0.99 -1.07,2.397 -0.416,3.737 0.563,1.155 1.632,1.757 2.987,1.639 0.619,-0.055 1.232,-0.181 1.895,-0.281 0.09,0.602 0.182,1.228 0.277,1.877 -1.413,0.399 -2.8,0.478 -4.183,0.062 -1.99,-0.597 -3.357,-1.93 -3.78,-3.933 -0.57,-2.7 1.241,-5.233 3.802,-5.584 1.535,-0.209 3.014,-0.117 4.447,0.502 0.278,0.119 0.393,0.29 0.398,0.591" />
      </g>
      <g
         transform="translate(529.0098,769.2148)"
         id="g3214"
         style="fill:#ffffff">
        <path
           inkscape:connector-curvature="0"
           id="path3216"
           style="fill:#ffffff;fill-opacity:1;fill-rule:nonzero;stroke:none"
           d="m 0,0 c 0.382,-0.068 0.731,-0.072 1.031,-0.193 0.487,-0.198 0.574,-0.698 0.246,-1.112 -0.25,-0.318 -0.943,-0.532 -1.302,-0.371 -0.082,0.035 -0.151,0.213 -0.142,0.32 C -0.134,-0.939 -0.066,-0.523 0,0 m -7.579,-2.504 c 0.319,0.618 0.626,1.197 0.978,1.875 0.196,-0.687 0.359,-1.256 0.536,-1.875 z m 5.893,3.795 c -0.242,0.002 -0.349,-0.053 -0.387,-0.33 -0.207,-1.54 -0.437,-3.078 -0.662,-4.615 -0.059,-0.403 -0.14,-0.803 -0.212,-1.203 -0.117,0.125 -0.154,0.24 -0.189,0.356 -0.524,1.804 -1.058,3.606 -1.57,5.413 C -4.789,1.196 -4.911,1.304 -5.213,1.295 -5.925,1.277 -6.634,1.289 -7.345,1.304 -7.633,1.309 -7.82,1.213 -7.971,0.949 c -1.052,-1.88 -2.117,-3.752 -3.175,-5.628 -0.052,-0.089 -0.081,-0.188 -0.143,-0.339 0.518,0 0.981,0.007 1.445,0 0.919,-0.015 0.926,-0.02 1.289,0.827 0.089,0.207 0.196,0.301 0.421,0.299 0.75,-0.006 1.505,-0.008 2.254,0 0.238,0.003 0.343,-0.087 0.379,-0.321 0.041,-0.263 0.122,-0.519 0.181,-0.758 h 4.716 c 0.131,1.02 0.255,2.018 0.378,3.014 0.03,0.006 0.056,0.014 0.083,0.02 0.071,-0.129 0.142,-0.256 0.205,-0.391 0.37,-0.788 0.728,-1.583 1.111,-2.367 0.062,-0.127 0.212,-0.297 0.326,-0.302 0.662,-0.028 1.326,-0.014 2.054,-0.014 -0.463,0.928 -0.886,1.785 -1.31,2.638 0.247,0.144 0.458,0.242 0.642,0.376 0.693,0.501 0.907,1.742 0.394,2.39 C 2.845,0.941 2.259,1.267 1.556,1.282 0.475,1.305 -0.605,1.283 -1.686,1.291" />
      </g>
      <g
         transform="translate(517.4297,764.2451)"
         id="g3218"
         style="fill:#ffffff">
        <path
           inkscape:connector-curvature="0"
           id="path3220"
           style="fill:#ffffff;fill-opacity:1;fill-rule:nonzero;stroke:none"
           d="M 0,0 C 0.062,0.403 0.116,0.782 0.173,1.157 0.417,2.763 0.664,4.364 0.893,5.97 0.929,6.234 1.038,6.304 1.29,6.298 1.945,6.282 2.6,6.292 3.295,6.292 3.375,6.813 3.451,7.313 3.531,7.853 1.26,7.853 -0.951,7.854 -3.161,7.845 -3.249,7.843 -3.39,7.733 -3.41,7.651 -3.519,7.218 -3.599,6.776 -3.694,6.296 h 2.27 C -1.718,4.157 -2.001,2.085 -2.283,0 Z" />
      </g>
    </g>
  </g>
</svg>
