<?xml version="1.0" encoding="UTF-8" standalone="no"?>
<!-- Created with Inkscape (http://www.inkscape.org/) -->

<svg
   xmlns:dc="http://purl.org/dc/elements/1.1/"
   xmlns:cc="http://creativecommons.org/ns#"
   xmlns:rdf="http://www.w3.org/1999/02/22-rdf-syntax-ns#"
   xmlns:svg="http://www.w3.org/2000/svg"
   xmlns="http://www.w3.org/2000/svg"
   xmlns:sodipodi="http://sodipodi.sourceforge.net/DTD/sodipodi-0.dtd"
   xmlns:inkscape="http://www.inkscape.org/namespaces/inkscape"
   width="512mm"
   height="512mm"
   viewBox="0 0 512 512"
   version="1.1"
   id="svg8"
   inkscape:version="0.92.4 (5da689c313, 2019-01-14)"
   sodipodi:docname="logotambo.svg">
  <defs
     id="defs2">
    <filter
       style="color-interpolation-filters:sRGB;"
       inkscape:label="Blur"
       id="filter1456">
      <feGaussianBlur
         stdDeviation="66.84 66.8427"
         result="blur"
         id="feGaussianBlur1454" />
    </filter>
  </defs>
  <sodipodi:namedview
     id="base"
     pagecolor="#ffffff"
     bordercolor="#666666"
     borderopacity="1.0"
     inkscape:pageopacity="0.0"
     inkscape:pageshadow="2"
     inkscape:zoom="0.35"
     inkscape:cx="69.151787"
     inkscape:cy="887.92449"
     inkscape:document-units="mm"
     inkscape:current-layer="layer1"
     showgrid="false"
     inkscape:window-width="1920"
     inkscape:window-height="1008"
     inkscape:window-x="0"
     inkscape:window-y="0"
     inkscape:window-maximized="1"
     units="mm"
     inkscape:pagecheckerboard="true" />
  <metadata
     id="metadata5">
    <rdf:RDF>
      <cc:Work
         rdf:about="">
        <dc:format>image/svg+xml</dc:format>
        <dc:type
           rdf:resource="http://purl.org/dc/dcmitype/StillImage" />
        <dc:title />
      </cc:Work>
    </rdf:RDF>
  </metadata>
  <g
     inkscape:label="Capa 1"
     inkscape:groupmode="layer"
     id="layer1"
     transform="translate(0,214.99996)"
     style="opacity:1">
    <flowRoot
       xml:space="preserve"
       id="flowRoot815"
       style="font-style:normal;font-variant:normal;font-weight:bold;font-stretch:normal;font-size:40px;line-height:1.25;font-family:sans-serif;-inkscape-font-specification:'sans-serif Bold';letter-spacing:0px;word-spacing:0px;fill:#ffffff;fill-opacity:1;stroke:none"
       transform="matrix(0.50003737,0,0,0.50003737,-10.582645,191.68075)"><flowRegion
         id="flowRegion817"
         style="font-style:normal;font-variant:normal;font-weight:bold;font-stretch:normal;font-family:sans-serif;-inkscape-font-specification:'sans-serif Bold';fill:#ffffff"><rect
           id="rect819"
           width="382.85715"
           height="160"
           x="131.42857"
           y="116.8054"
           style="font-style:normal;font-variant:normal;font-weight:bold;font-stretch:normal;font-family:sans-serif;-inkscape-font-specification:'sans-serif Bold';fill:#ffffff" /></flowRegion><flowPara
         id="flowPara821" /></flowRoot>    <flowRoot
       xml:space="preserve"
       id="flowRoot823"
       style="font-style:normal;font-variant:normal;font-weight:bold;font-stretch:normal;font-size:40px;line-height:1.25;font-family:sans-serif;-inkscape-font-specification:'sans-serif Bold';letter-spacing:0px;word-spacing:0px;fill:#ffffff;fill-opacity:1;stroke:none"
       transform="matrix(0.50003737,0,0,0.50003737,-10.582645,191.68075)"><flowRegion
         id="flowRegion825"
         style="font-style:normal;font-variant:normal;font-weight:bold;font-stretch:normal;font-family:sans-serif;-inkscape-font-specification:'sans-serif Bold';fill:#ffffff"><rect
           id="rect827"
           width="468.57144"
           height="220"
           x="71.428574"
           y="153.94826"
           style="font-style:normal;font-variant:normal;font-weight:bold;font-stretch:normal;font-family:sans-serif;-inkscape-font-specification:'sans-serif Bold';fill:#ffffff" /></flowRegion><flowPara
         id="flowPara829" /></flowRoot>    <flowRoot
       xml:space="preserve"
       id="flowRoot831"
       style="font-style:normal;font-variant:normal;font-weight:normal;font-stretch:normal;font-size:40px;line-height:1.25;font-family:Damion;-inkscape-font-specification:Damion;letter-spacing:0px;word-spacing:0px;fill:#ffffff;fill-opacity:1;stroke:none"
       transform="matrix(2.0946259,0,0,2.0946259,-420.7176,-524.00207)"><flowRegion
         id="flowRegion833"
         style="font-style:normal;font-variant:normal;font-weight:normal;font-stretch:normal;font-family:Damion;-inkscape-font-specification:Damion;fill:#ffffff"><rect
           id="rect835"
           width="237.14285"
           height="180"
           x="208.57143"
           y="193.94826"
           style="font-style:normal;font-variant:normal;font-weight:normal;font-stretch:normal;font-family:Damion;-inkscape-font-specification:Damion;fill:#ffffff" /></flowRegion><flowPara
         id="flowPara843"
         style="font-style:normal;font-variant:normal;font-weight:normal;font-stretch:normal;line-height:0.25;font-family:Damion;-inkscape-font-specification:Damion;fill:#ffffff" /></flowRoot>    <flowRoot
       xml:space="preserve"
       id="flowRoot837"
       style="font-style:normal;font-weight:normal;font-size:192px;line-height:1.25;font-family:sans-serif;letter-spacing:0px;word-spacing:0px;fill:#ffffff;fill-opacity:1;stroke:none"
       transform="matrix(0.50003737,0,0,0.50003737,-10.582645,191.68075)"><flowRegion
         id="flowRegion839"
         style="font-size:192px;fill:#ffffff"><rect
           id="rect841"
           width="2739.5337"
           height="816.20325"
           x="96.97464"
           y="283.21881"
           style="font-size:192px;fill:#ffffff" /></flowRegion><flowPara
         id="flowPara844" /></flowRoot>    <text
       xml:space="preserve"
       style="font-style:normal;font-weight:normal;font-size:5.29206181px;line-height:1.25;font-family:sans-serif;letter-spacing:0px;word-spacing:0px;fill:#ffffff;fill-opacity:1;stroke:none;stroke-width:0.13230155"
       x="79.226631"
       y="-75.710556"
       id="text848"><tspan
         sodipodi:role="line"
         id="tspan846"
         x="79.226631"
         y="-71.02832"
         style="fill:#ffffff;stroke-width:0.13230155" /></text>
    <g
       aria-label="Socio"
       transform="rotate(-12.338337)"
       style="font-style:normal;font-weight:normal;font-size:155.95214844px;line-height:1.25;font-family:sans-serif;letter-spacing:0px;word-spacing:0px;fill:#ffffff;fill-opacity:1;stroke:none;stroke-width:0.81225073"
       id="text852">
      <path
         d="m 67.308474,-25.375543 q 2.208307,0 3.198237,1.827564 1.06608,1.751416 1.06608,4.035871 0,1.142228 -0.228446,1.979861 -0.228445,0.837634 -0.913782,1.599119 -0.685337,0.685337 -1.827564,1.370673 -1.142228,0.609188 -2.969792,1.370673 -4.264317,1.827565 -6.701069,4.4166141 -2.436752,2.5129008 -2.436752,5.0258016 0,1.5991187 1.066079,3.04594042 1.066079,1.44682169 3.350534,2.58904938 2.284456,1.0660791 5.863435,1.7514157 3.655129,0.6091881 8.757079,0.6091881 5.254247,0 9.975455,-1.2183762 4.721208,-1.2945247 8.224039,-3.57897996 3.57898,-2.28445534 5.63499,-5.40654424 2.132163,-3.1220889 2.132163,-6.7772169 0,-2.741347 -2.28446,-5.711139 -2.284456,-2.969792 -7.234109,-6.168029 -8.757078,-5.711138 -13.325989,-9.21397 -4.492762,-3.502831 -5.558841,-4.416613 -5.711138,-5.025802 -8.528633,-9.670861 -2.817495,-4.645059 -2.817495,-9.670861 0,-4.645059 2.208307,-9.061673 2.284455,-4.416613 6.09188,-8.300187 3.807426,-3.883574 8.757079,-7.15796 5.025802,-3.350534 10.432346,-5.711138 5.482693,-2.360604 10.965385,-3.655129 5.55884,-1.370673 10.50849,-1.370673 3.73128,0 6.85337,0.837634 3.19824,0.837633 5.55884,2.665197 2.36061,1.751416 3.65513,4.568911 1.37067,2.817495 1.37067,6.777217 0,5.711139 -3.27438,10.889237 -3.27439,5.178099 -9.97546,9.670861 -2.96979,2.05601 -5.48269,2.05601 -2.58905,0 -4.11202,-1.827564 -1.52297,-1.903713 -1.52297,-4.416614 0,-2.132158 1.21838,-4.264316 1.29452,-2.132159 4.11202,-3.655129 2.2083,-1.142228 3.88357,-3.04594 1.75142,-1.979862 1.75142,-3.807426 0,-1.751416 -1.21838,-2.284455 -1.14223,-0.53304 -2.8175,-0.53304 -3.19823,0 -7.00566,0.837634 -3.731275,0.761485 -7.538701,2.132158 -3.731277,1.370673 -7.310257,3.274386 -3.502831,1.903713 -6.244177,4.11202 -2.665198,2.208306 -4.340465,4.721207 -1.599119,2.436753 -1.599119,4.873505 0,1.675267 0.685336,3.122089 0.685337,1.446822 1.979862,2.893643 1.370673,1.446822 3.274386,3.045941 1.903712,1.52297 4.416613,3.350534 l 17.818752,13.173692 q 3.42668,2.512901 6.09188,4.949653 2.74135,2.360604 4.56891,4.797357 1.82757,2.360603 2.8175,4.797356 0.98993,2.436752 0.98993,5.178098 0,6.0918812 -3.19824,11.9553164 -3.12209,5.7872868 -8.98553,10.3561974 -5.78728,4.5689102 -14.011321,7.3864052 -8.147891,2.817495 -18.123345,2.817495 -9.290119,0 -15.838891,-1.52297 Q 52.68796,15.592355 48.499792,13.079454 44.311624,10.490405 42.407911,7.2160192 40.504199,3.8654847 40.504199,0.21035624 q 0,-3.80742554 1.903712,-7.69099954 1.979862,-3.9597227 5.482693,-7.4625537 3.57898,-3.502832 8.528633,-6.244178 4.949653,-2.741346 10.889237,-4.188168 z"
         style="font-style:normal;font-variant:normal;font-weight:normal;font-stretch:normal;font-family:Damion;-inkscape-font-specification:Damion;fill:#ffffff;stroke-width:0.81225073"
         id="path2090" />
      <path
         d="m 154.80311,-24.918652 q -3.57898,0 -6.92951,1.827564 -3.27439,1.751416 -5.86344,4.721208 -2.5129,2.893643 -4.03587,6.62492 -1.52297,3.6551286 -1.52297,7.5387027 0,1.4468216 0.22844,3.1982374 0.22845,1.6752672 0.91379,3.1982374 0.76148,1.4468217 2.13216,2.4367523 1.37067,0.9899306 3.65512,0.9899306 3.50284,0 6.77722,-1.8275642 3.35054,-1.9037127 5.93958,-4.8735046 2.58905,-3.0459404 4.11202,-6.8533659 1.52297,-3.8074257 1.52297,-7.6909997 0,-1.52297 -0.22844,-3.122089 -0.1523,-1.675267 -0.91378,-3.04594 -0.68534,-1.370673 -2.05601,-2.208307 -1.37068,-0.913782 -3.73128,-0.913782 z m 3.95972,-13.402138 q 2.89365,0 6.16803,0.761485 3.35054,0.761485 6.16803,2.58905 2.8175,1.827564 4.64506,4.873504 1.90371,2.969792 1.90371,7.386406 0,2.284455 -0.60918,5.254247 -0.60919,2.893643 -1.82757,6.091881 0.76149,0.913782 1.75142,1.294524 0.98993,0.3807429 2.13215,0.3807429 1.59912,0 3.50284,-0.9137819 1.97986,-0.913782 4.03587,-2.360604 2.05601,-1.446822 4.11202,-3.274386 2.05601,-1.827564 3.88357,-3.655128 1.82757,-1.827565 3.27439,-3.426683 1.52297,-1.675268 2.5129,-2.817495 0.53304,-0.53304 1.29452,-0.53304 1.06608,0 1.90372,1.142228 0.83763,1.066079 0.83763,3.04594 0,1.979862 -1.21838,4.568911 -1.14223,2.589049 -4.34046,5.406544 -1.82757,1.979861 -4.18817,4.5689107 -2.3606,2.5890493 -5.0258,4.8735046 -2.6652,2.28445531 -5.55884,3.88357402 -2.89365,1.59911868 -5.78729,1.59911868 -1.97986,0 -3.88357,-0.6091881 -1.82757,-0.609188 -3.73128,-1.97986121 -2.74135,4.26431651 -6.24418,7.76714801 -3.50283,3.5028313 -7.8433,6.0157323 -4.26431,2.512901 -9.29011,3.883574 -4.94966,1.446822 -10.58465,1.446822 -2.13216,0 -4.94965,-0.837634 -2.81749,-0.837634 -5.40654,-2.741346 -2.5129,-1.979862 -4.26432,-5.10195 -1.75142,-3.1220894 -1.75142,-7.6148514 0,-3.04594044 0.98993,-7.310257 0.98993,-4.2643166 2.9698,-8.7570786 2.05601,-4.568911 5.10195,-8.985524 3.12209,-4.492762 7.3864,-7.995594 4.26432,-3.57898 9.74701,-5.711138 5.48269,-2.208307 12.18376,-2.208307 z"
         style="font-style:normal;font-variant:normal;font-weight:normal;font-stretch:normal;font-family:Damion;-inkscape-font-specification:Damion;fill:#ffffff;stroke-width:0.81225073"
         id="path2092" />
      <path
         d="m 233.15993,-31.315127 q 0,2.360604 -0.53304,5.254247 -0.53304,2.817495 -1.75142,5.330396 -1.21837,2.512901 -3.12209,4.188168 -1.90371,1.675267 -4.7212,1.675267 -1.52298,0 -1.97987,-0.456891 -0.38074,-0.456891 -0.38074,-1.599119 0,-0.685336 0,-1.979861 0.0761,-1.370673 0.0761,-2.589049 0,-1.370673 -0.38074,-2.284455 -0.38075,-0.989931 -1.90372,-0.989931 -1.75141,0 -3.95972,1.370673 -2.13216,1.294525 -4.34046,3.426683 -2.13216,2.132158 -4.18817,4.873505 -2.05601,2.665198 -3.73128,5.4826924 -1.59912,2.7413464 -2.58905,5.3303957 -0.91378,2.5890494 -0.91378,4.41661363 0,2.66519787 1.82756,4.18816807 1.90372,1.5229702 5.10195,1.5229702 3.42669,0 7.31026,-1.1422277 3.88358,-1.1422276 7.691,-2.8936434 3.88358,-1.75141568 7.46256,-3.8074255 3.57898,-2.0560097 6.47262,-3.883574 2.96979,-1.9037127 4.94965,-3.1982374 1.97986,-1.370673 2.58905,-1.675267 1.21838,-0.609188 2.28446,-0.609188 0.91378,0 1.52297,0.456891 0.68533,0.380742 1.06608,0.9899304 0.38074,0.5330396 0.53304,1.2183762 0.15229,0.609188 0.15229,1.0660791 0,0.6853366 -0.15229,1.6752672 -0.1523,0.9137821 -1.14223,2.1321583 -0.38074,0.4568911 -2.5129,2.3606038 -2.05601,1.82756426 -5.40655,4.3404651 -3.27438,2.5129008 -7.61485,5.4065442 -4.26431,2.8174947 -9.21397,5.1780987 -4.8735,2.360604 -10.12775,3.883574 -5.25425,1.599119 -10.3562,1.599119 -3.88357,0 -6.92951,-1.218376 -2.96979,-1.218377 -5.0258,-3.274386 -2.05601,-2.132159 -3.12209,-4.9496535 -1.06608,-2.8174949 -1.06608,-5.9395838 0,-3.42668297 1.59912,-7.8432966 1.59912,-4.492762 4.41661,-9.1378211 2.8175,-4.645059 6.62492,-9.137821 3.80743,-4.492762 8.22404,-7.995594 4.49276,-3.502831 9.29012,-5.63499 4.8735,-2.132158 9.82316,-2.132158 1.67526,0 3.12209,0.380743 1.52297,0.380742 2.58904,1.218376 1.14223,0.761485 1.75142,2.132158 0.68534,1.370673 0.68534,3.274386 z"
         style="font-style:normal;font-variant:normal;font-weight:normal;font-stretch:normal;font-family:Damion;-inkscape-font-specification:Damion;fill:#ffffff;stroke-width:0.81225073"
         id="path2094" />
      <path
         d="m 257.67974,-48.829284 q 0,-1.751416 0.60919,-3.57898 0.68534,-1.903713 1.97986,-3.426683 1.29453,-1.52297 3.19824,-2.512901 1.97986,-0.989931 4.64506,-0.989931 4.41661,0 6.16803,1.751416 1.75141,1.675267 1.75141,4.264317 0,1.446821 -0.60919,3.198237 -0.53303,1.751416 -1.67526,3.274386 -1.14223,1.446822 -2.96979,2.436752 -1.82757,0.989931 -4.34047,0.989931 -4.72121,0 -6.62492,-1.446822 -1.90371,-1.52297 -2.13216,-3.959722 z m -8.37633,17.133415 q 1.29452,-2.132159 2.96979,-3.045941 1.67526,-0.913782 3.42668,-0.913782 2.89364,0 4.94965,1.903713 2.13216,1.827564 2.13216,4.721207 -0.0762,0.685337 -0.22844,1.370674 -0.0761,0.685336 -0.45689,1.370673 -1.06608,1.979861 -1.75142,3.350534 -0.68534,1.370673 -1.29452,2.58905 -0.53304,1.142227 -1.06608,2.284455 -0.53304,1.142227 -1.29453,2.741346 -0.91378,1.903713 -2.05601,4.188168 -1.14223,2.208307 -2.20831,4.5689108 -0.98993,2.3606039 -1.75141,4.6450592 -0.68534,2.28445526 -0.68534,4.188168 0,2.0560098 0.98993,2.7413464 1.06608,0.609188 2.96979,0.609188 2.13216,0 4.41662,-0.9137821 2.3606,-0.9137821 4.72121,-2.3606038 2.3606,-1.44682167 4.64506,-3.27438591 2.28445,-1.90371279 4.26431,-3.80742549 2.05601,-1.9037128 3.73128,-3.6551285 1.75141,-1.7514156 2.89364,-3.1220886 1.52297,-1.446822 3.04594,-1.446822 1.37068,0 2.20831,1.218376 0.91378,1.218376 0.91378,3.1220891 0,1.7514157 -0.91378,3.731277 -0.83763,1.9798612 -2.8175,3.731277 -3.88357,3.9597225 -7.91944,7.614851 -4.03587,3.5789799 -8.30019,6.3964749 -4.18817,2.741346 -8.45248,4.416613 -4.26432,1.675268 -8.60478,1.675268 -6.16803,0 -9.74701,-3.122089 -3.50284,-3.198238 -3.50284,-9.8993065 0,-3.5028315 0.98994,-6.85336591 0.98993,-3.35053449 2.3606,-6.47262339 1.37067,-3.1982372 2.89364,-6.0918812 1.52297,-2.969791 2.58905,-5.634989 0.38074,-0.989931 1.29453,-3.045941 0.98993,-2.056009 2.05601,-4.188168 1.21837,-2.512901 2.58905,-5.330395 z"
         style="font-style:normal;font-variant:normal;font-weight:normal;font-stretch:normal;font-family:Damion;-inkscape-font-specification:Damion;fill:#ffffff;stroke-width:0.81225073"
         id="path2096" />
      <path
         d="m 305.04412,-24.918652 q -3.57898,0 -6.92952,1.827564 -3.27439,1.751416 -5.86343,4.721208 -2.51291,2.893643 -4.03588,6.62492 -1.52297,3.6551286 -1.52297,7.5387027 0,1.4468216 0.22845,3.1982374 0.22845,1.6752672 0.91378,3.1982374 0.76149,1.4468217 2.13216,2.4367523 1.37067,0.9899306 3.65513,0.9899306 3.50283,0 6.77722,-1.8275642 3.35053,-1.9037127 5.93958,-4.8735046 2.58905,-3.0459404 4.11202,-6.8533659 1.52297,-3.8074257 1.52297,-7.6909997 0,-1.52297 -0.22845,-3.122089 -0.15229,-1.675267 -0.91378,-3.04594 -0.68533,-1.370673 -2.05601,-2.208307 -1.37067,-0.913782 -3.73127,-0.913782 z m 3.95972,-13.402138 q 2.89364,0 6.16803,0.761485 3.35053,0.761485 6.16803,2.58905 2.81749,1.827564 4.64506,4.873504 1.90371,2.969792 1.90371,7.386406 0,2.284455 -0.60919,5.254247 -0.60919,2.893643 -1.82756,6.091881 0.76148,0.913782 1.75141,1.294524 0.98993,0.3807429 2.13216,0.3807429 1.59912,0 3.50283,-0.9137819 1.97986,-0.913782 4.03587,-2.360604 2.05601,-1.446822 4.11202,-3.274386 2.05601,-1.827564 3.88358,-3.655128 1.82756,-1.827565 3.27438,-3.426683 1.52297,-1.675268 2.5129,-2.817495 0.53304,-0.53304 1.29453,-0.53304 1.06608,0 1.90371,1.142228 0.83763,1.066079 0.83763,3.04594 0,1.979862 -1.21837,4.568911 -1.14223,2.589049 -4.34047,5.406544 -1.82756,1.979861 -4.18817,4.5689107 -2.3606,2.5890493 -5.0258,4.8735046 -2.6652,2.28445531 -5.55884,3.88357402 -2.89364,1.59911868 -5.78729,1.59911868 -1.97986,0 -3.88357,-0.6091881 -1.82756,-0.609188 -3.73128,-1.97986121 -2.74134,4.26431651 -6.24417,7.76714801 -3.50284,3.5028313 -7.8433,6.0157323 -4.26432,2.512901 -9.29012,3.883574 -4.94965,1.446822 -10.58464,1.446822 -2.13216,0 -4.94965,-0.837634 -2.8175,-0.837634 -5.40655,-2.741346 -2.5129,-1.979862 -4.26432,-5.10195 -1.75141,-3.1220894 -1.75141,-7.6148514 0,-3.04594044 0.98993,-7.310257 0.98993,-4.2643166 2.96979,-8.7570786 2.05601,-4.568911 5.10195,-8.985524 3.12209,-4.492762 7.38641,-7.995594 4.26431,-3.57898 9.74701,-5.711138 5.48269,-2.208307 12.18376,-2.208307 z"
         style="font-style:normal;font-variant:normal;font-weight:normal;font-stretch:normal;font-family:Damion;-inkscape-font-specification:Damion;fill:#ffffff;stroke-width:0.81225073"
         id="path2098" />
    </g>
    <g
       aria-label="Tambero"
       transform="rotate(-11.493447)"
       style="font-style:normal;font-weight:normal;font-size:148.15426636px;line-height:1.25;font-family:sans-serif;letter-spacing:0px;word-spacing:0px;fill:#ffffff;fill-opacity:1;stroke:none;stroke-width:0.77163678"
       id="text852-5">
      <path
         d="m 29.546326,140.21445 q -1.085114,2.17023 -2.604274,3.83407 -1.51916,1.66384 -3.255343,2.74895 -1.736182,1.08512 -3.544706,1.5915 -1.808524,0.57873 -3.400025,0.57873 -2.31491,0 -3.906411,-1.22979 -1.591501,-1.15746 -1.591501,-3.47237 0,-0.79575 0.144682,-1.73618 0.217023,-1.01278 0.79575,-2.17023 5.497913,-11.35753 10.923484,-21.84697 5.497912,-10.48944 10.561779,-19.604396 5.136207,-9.11496 9.693687,-16.566078 4.55748,-7.523458 8.246868,-12.804348 3.76173,-5.35323 6.366004,-8.246868 2.676615,-2.893638 3.906411,-2.893638 2.531933,0 3.76173,1.446819 1.229796,1.446819 1.229796,3.400025 0,1.5915 -0.795751,3.183001 -1.808523,3.689389 -4.123434,8.391551 -2.242569,4.62982 -4.774503,9.91071 -2.531933,5.208548 -5.280889,10.851142 -2.748956,5.57025 -5.425571,11.14051 -2.676615,5.49791 -5.28089,10.70646 -2.531933,5.1362 -4.774502,9.549 -2.170229,4.4128 -3.978753,7.88517 -1.736182,3.40002 -2.893638,5.35323 z M 114.1129,55.575535 q 0,1.302137 -1.01278,3.689388 -0.94043,2.314911 -2.74895,4.55748 -1.73618,2.24257 -4.26812,3.906411 -2.45959,1.663842 -5.49791,1.663842 -0.72341,0 -1.808524,-0.07234 -1.085114,-0.144681 -2.170229,-0.578727 -1.012773,-0.434046 -1.736182,-1.229796 -0.72341,-0.795751 -0.72341,-2.097888 0,-0.651068 0.651069,-1.808524 0.651068,-1.229796 1.374478,-2.604274 0.79575,-1.374478 1.446819,-2.676615 0.651068,-1.302137 0.651068,-2.170229 0,-2.459592 -3.472365,-3.544706 -3.472366,-1.157455 -11.646893,-1.157455 -8.174528,0.289363 -14.757554,1.012773 -6.583027,0.651069 -12.15328,1.736183 -5.570253,1.012773 -10.417097,2.387251 -4.846843,1.374478 -9.549005,2.965979 -4.702162,1.51916 -9.549006,3.327684 -4.774502,1.736183 -10.200074,3.544706 -0.506386,0.144682 -1.012773,0.289364 -0.434046,0.144682 -0.79575,0.144682 -1.157456,0 -2.097888,-0.506387 -0.940432,-0.506386 -1.663842,-1.374478 -0.651068,-0.868091 -1.0851141,-1.953205 -0.3617048,-1.085115 -0.3617048,-2.24257 0,-1.880864 3.0383199,-4.195775 3.03832,-2.387251 8.319209,-4.774503 5.28089,-2.387251 12.442644,-4.62982 7.161754,-2.314911 15.408622,-4.051094 8.31921,-1.808523 17.289487,-2.821297 9.042619,-1.085114 18.012897,-1.085114 7.740482,0 13.383076,1.229796 5.642592,1.229796 9.331982,3.400025 3.68939,2.170228 5.49791,5.208548 1.80853,2.965979 1.88087,6.510686 z"
         style="font-style:normal;font-variant:normal;font-weight:normal;font-stretch:normal;font-family:Damion;-inkscape-font-specification:Damion;fill:#ffffff;stroke-width:0.77163678"
         id="path2075" />
      <path
         d="m 96.389364,104.11631 q -3.400024,0 -6.583026,1.73619 -3.183002,1.73618 -5.642594,4.55748 -2.459593,2.82129 -3.906412,6.366 -1.446819,3.47236 -1.446819,7.01707 0,1.44682 0.144682,3.03832 0.217023,1.51916 0.868092,2.8213 0.651068,1.30214 1.808524,2.17023 1.229796,0.86809 3.255342,0.86809 1.591501,0 3.689389,-1.37448 2.170228,-1.44682 4.412798,-3.61705 2.31491,-2.24257 4.485139,-4.84684 2.170228,-2.67662 3.906411,-5.20855 1.73618,-2.53193 2.8213,-4.55748 1.08511,-2.02555 1.08511,-2.96598 0,-1.37448 -0.94043,-2.45959 -0.94043,-1.15746 -2.31491,-1.95321 -1.37448,-0.79575 -2.96598,-1.15745 -1.51916,-0.43405 -2.676616,-0.43405 z m 50.132276,18.66397 q -1.30213,1.22979 -3.47236,3.40002 -2.17023,2.17023 -4.99153,4.70216 -2.74895,2.53194 -5.93196,5.13621 -3.11066,2.53193 -6.43834,4.62982 -3.25534,2.09789 -6.43835,3.40003 -3.183,1.37448 -6.00429,1.37448 -2.53194,0 -4.34046,-1.08512 -1.80852,-1.08511 -3.03832,-2.8213 -1.15746,-1.73618 -1.73618,-3.90641 -0.57873,-2.24257 -0.57873,-4.55748 0,-1.51916 0.21702,-2.96598 0.21702,-1.51916 0.72341,-2.82129 -2.24257,3.03832 -5.136207,6.29366 -2.821297,3.183 -6.14898,5.85962 -3.255343,2.60427 -6.872391,4.26811 -3.544706,1.73619 -7.234095,1.73619 -1.880864,0 -4.412798,-0.79576 -2.459592,-0.7234 -4.702161,-2.45959 -2.24257,-1.73618 -3.76173,-4.48514 -1.51916,-2.74895 -1.51916,-6.7277 0,-2.96598 0.868092,-7.08942 0.940432,-4.12343 2.748956,-8.53623 1.880864,-4.48514 4.702161,-8.8256 2.893638,-4.34045 6.80005,-7.740478 3.906411,-3.472365 8.897937,-5.570253 4.991525,-2.170228 11.140506,-2.170228 3.183,0 5.57025,0.79575 2.38725,0.79575 4.0511,1.736183 1.88086,1.157455 3.32768,2.531933 1.2298,-0.651069 2.53193,-1.229796 1.08512,-0.506387 2.24257,-0.868092 1.2298,-0.434045 2.09789,-0.434045 2.74896,0 4.48514,1.51916 1.73618,1.51916 1.73618,3.327683 0,0.506387 -0.0723,0.795751 -0.3617,1.374482 -1.15745,3.472362 -0.72341,2.09789 -1.66385,4.70217 -0.94043,2.53193 -1.9532,5.35323 -0.94043,2.74895 -1.73618,5.42557 -0.79575,2.67661 -1.30214,5.06386 -0.50639,2.31491 -0.50639,3.97876 0,2.17022 0.72341,3.61704 0.72341,1.37448 2.45959,1.37448 1.08512,0 2.53194,-0.65107 1.51916,-0.72341 3.25534,-1.88086 1.73618,-1.15746 3.54471,-2.60428 1.88086,-1.51916 3.61704,-3.03832 4.0511,-3.61704 8.60858,-8.24686 1.15745,-0.94044 2.24257,-0.94044 1.44682,0 2.38725,1.44682 1.01277,1.37448 1.01277,3.11066 0,2.02555 -1.37448,3.40003 z"
         style="font-style:normal;font-variant:normal;font-weight:normal;font-stretch:normal;font-family:Damion;-inkscape-font-specification:Damion;fill:#ffffff;stroke-width:0.77163678"
         id="path2077" />
      <path
         d="m 161.93026,141.15488 q 0,-3.47237 1.51916,-7.08941 1.59151,-3.61705 3.97876,-7.45112 2.38725,-3.83407 5.20855,-7.74048 2.82129,-3.97876 5.35323,-8.10219 0.72341,-1.15746 1.15745,-2.17023 0.43405,-1.08511 0.43405,-2.17023 0,-1.15745 -0.65107,-1.88086 -0.65107,-0.79575 -1.88087,-0.79575 -2.96598,0 -5.71493,1.30213 -2.74896,1.2298 -5.28089,3.32769 -2.53193,2.02555 -4.84684,4.70216 -2.24257,2.67662 -4.26812,5.57025 -1.95321,2.8213 -3.68939,5.6426 -1.73618,2.82129 -3.183,5.13621 -1.30214,2.38725 -2.38725,5.20854 -1.08512,2.8213 -2.38725,5.20855 -1.2298,2.38725 -2.8213,3.97875 -1.5915,1.66385 -3.97875,1.66385 -2.60428,0 -4.12344,-1.66385 -1.51916,-1.66384 -1.51916,-3.97875 0,-1.30214 0.94044,-4.05109 0.94043,-2.74896 2.38725,-6.366 1.51916,-3.68939 3.40002,-7.81283 1.88087,-4.12343 3.68939,-8.17452 1.88086,-4.0511 3.47237,-7.5958 1.66384,-3.61705 2.74895,-6.148985 1.30214,-3.110661 3.40003,-4.629821 2.17022,-1.51916 4.26811,-1.51916 1.80853,0 3.183,1.374478 1.44682,1.302137 1.44682,3.83407 0,1.880868 -0.86809,4.123438 1.95321,-1.80853 4.19578,-3.906415 2.24257,-2.097888 4.84684,-3.83407 2.67662,-1.808524 5.93196,-2.965979 3.25534,-1.157455 7.30643,-1.157455 2.02555,0 3.83407,0.506386 1.80853,0.506387 3.18301,1.591501 1.44682,1.085114 2.31491,2.821297 0.94043,1.736183 1.08511,4.195775 1.66384,-1.663842 3.61705,-3.255343 1.9532,-1.663841 4.19577,-2.965978 2.31491,-1.302138 4.99153,-2.097888 2.67661,-0.79575 5.93196,-0.79575 2.38725,0 4.55748,0.506386 2.17023,0.506387 3.83407,1.736183 1.73618,1.157455 2.67661,3.03832 1.01278,1.880865 1.01278,4.62982 0,4.34046 -2.02555,8.24687 -1.95321,3.90641 -4.62982,7.16175 -0.86809,1.08512 -2.31491,2.74896 -1.44682,1.66384 -2.8213,3.54471 -1.37448,1.88086 -2.38725,3.90641 -1.01277,1.9532 -1.01277,3.68939 0,1.5915 0.94043,2.02554 1.01277,0.43405 2.60427,0.43405 3.03832,0 6.58303,-1.80853 3.54471,-1.80852 6.87239,-4.34045 3.40002,-2.60428 6.29366,-5.35323 2.96598,-2.8213 4.70216,-4.70216 0.43405,-0.50639 1.01278,-0.72341 0.57873,-0.21703 1.15745,-0.21703 1.30214,0 2.31491,1.15746 1.08512,1.15745 1.08512,3.03832 0,1.44682 -0.86809,3.183 -0.8681,1.73618 -2.96598,3.40002 -3.90641,3.76173 -8.02985,7.2341 -4.05109,3.40002 -8.24687,6.07664 -4.12343,2.60427 -8.31921,4.19577 -4.12343,1.59151 -8.24686,1.59151 -5.35323,0 -8.68092,-2.53194 -3.25534,-2.53193 -3.25534,-8.02984 0,-3.61705 1.37448,-6.80005 1.37447,-3.183 3.40002,-6.07664 2.02555,-2.96598 4.26812,-5.71494 2.24257,-2.74895 3.90641,-5.49791 0.72341,-1.15746 1.15745,-2.17023 0.43405,-1.08511 0.43405,-2.17023 0,-1.15745 -0.65107,-1.88086 -0.65107,-0.79575 -1.88086,-0.79575 -2.96598,0 -5.71494,1.30213 -2.74895,1.2298 -5.28089,3.32769 -2.53193,2.02555 -4.84684,4.70216 -2.24257,2.67662 -4.26812,5.57025 -1.9532,2.8213 -3.68939,5.6426 -1.73618,2.82129 -3.183,5.13621 -1.30214,2.38725 -2.38725,5.20854 -1.08511,2.8213 -2.38725,5.20855 -1.2298,2.38725 -2.8213,3.97875 -1.5915,1.66385 -3.97875,1.66385 -0.86809,0 -1.88086,-0.36171 -1.01278,-0.28936 -1.88087,-0.86809 -0.79575,-0.57873 -1.37448,-1.37448 -0.50638,-0.79575 -0.57873,-1.73618 z"
         style="font-style:normal;font-variant:normal;font-weight:normal;font-stretch:normal;font-family:Damion;-inkscape-font-specification:Damion;fill:#ffffff;stroke-width:0.77163678"
         id="path2079" />
      <path
         d="m 270.22466,103.0312 q -4.12344,0 -8.24687,2.02554 -4.12344,1.95321 -7.45112,5.20855 -3.25534,3.25535 -5.35323,7.37878 -2.09789,4.05109 -2.09789,8.24687 0,1.15745 0.21703,2.38725 0.21702,1.15746 0.86809,2.17023 0.72341,1.01277 2.02554,1.66384 1.30214,0.65107 3.47237,0.65107 4.19577,0 8.10219,-1.95321 3.97875,-2.02554 7.08941,-5.28089 3.11066,-3.25534 4.99152,-7.30643 1.88087,-4.12344 1.88087,-8.24687 0,-1.08511 -0.21702,-2.31491 -0.14469,-1.2298 -0.72341,-2.24257 -0.57873,-1.01277 -1.66385,-1.66384 -1.08511,-0.72341 -2.89363,-0.72341 z m 6.07664,29.1534 q -6.14898,7.37878 -13.09372,10.85114 -6.87239,3.40003 -14.90223,3.40003 -4.4128,0 -7.45112,-1.30214 -3.03832,-1.22979 -4.91918,-3.40002 -1.88087,-2.17023 -2.74896,-5.06387 -0.79575,-2.89364 -0.79575,-6.14898 0,-3.68939 0.94043,-7.5958 0.94043,-3.97875 2.45959,-7.66814 1.01278,-2.38725 1.66385,-3.97875 0.65106,-1.5915 1.08511,-2.67662 0.43405,-1.15745 0.72341,-1.9532 0.3617,-0.8681 0.72341,-1.73619 0.3617,-0.94043 0.86809,-2.09788 0.50639,-1.2298 1.37448,-3.110665 l 21.12356,-46.949277 q 0.43404,-0.940433 1.22979,-1.808524 0.86809,-0.868091 1.95321,-1.51916 1.08511,-0.723409 2.31491,-1.085114 1.30214,-0.434046 2.60427,-0.434046 3.32769,0 4.62982,1.302137 1.37448,1.302137 1.37448,3.183002 0,1.446819 -0.72341,3.183002 -0.72341,1.663842 -1.5915,3.110661 -5.35323,10.272415 -10.12773,20.906534 -4.7745,10.561779 -10.12773,20.90654 2.31491,-1.808529 4.91918,-3.472371 2.60427,-1.736182 5.42557,-3.03832 2.8213,-1.374478 5.85962,-2.170228 3.03832,-0.868091 6.22132,-0.868091 2.24257,0 4.55748,0.868091 2.31491,0.868091 4.19577,2.531933 1.95321,1.663842 3.11067,4.123434 1.22979,2.387252 1.22979,5.570252 0,0.72341 -0.43404,2.89364 -0.43405,2.17023 -1.30214,4.91918 -0.79575,2.67662 -2.02555,5.57026 -1.15745,2.82129 -2.60427,4.99152 0.50638,0.79575 1.30214,1.01278 0.79575,0.14468 1.80852,0.14468 3.32768,0 6.58303,-0.86809 3.32768,-0.86809 6.22132,-2.09789 2.96598,-1.30214 5.42557,-2.67662 2.45959,-1.37447 4.12343,-2.38725 0.86809,-0.94043 1.88087,-0.94043 1.22979,0 2.09788,1.08511 0.94044,1.08512 0.94044,2.8213 0,1.66384 -0.72341,3.32769 -0.65107,1.5915 -2.45959,3.5447 -3.25535,1.95321 -6.58303,3.68939 -3.25534,1.73618 -6.65537,3.03832 -3.40002,1.2298 -6.94473,2.02555 -3.47237,0.72341 -7.08941,0.72341 -2.31491,0 -4.26812,-0.65107 -1.9532,-0.65107 -3.40002,-2.02555 z"
         style="font-style:normal;font-variant:normal;font-weight:normal;font-stretch:normal;font-family:Damion;-inkscape-font-specification:Damion;fill:#ffffff;stroke-width:0.77163678"
         id="path2081" />
      <path
         d="m 329.32724,100.93331 q -0.36171,-0.0723 -0.65107,-0.0723 -0.28937,0 -0.65107,0 -2.74896,0 -5.13621,1.08511 -2.38725,1.08512 -4.4128,2.89364 -1.9532,1.73618 -3.5447,3.97875 -1.51916,2.24257 -2.74896,4.48514 -1.2298,2.17023 -2.09789,4.19578 -0.79575,2.02554 -1.22979,3.40002 2.53193,-1.30213 5.20855,-2.96598 2.74895,-1.66384 5.1362,-3.183 2.38725,-1.51916 4.12344,-2.74895 1.80852,-1.2298 2.53193,-1.66385 3.25534,-2.02554 4.48514,-3.76173 1.2298,-1.80852 1.2298,-3.11066 0,-1.08511 -0.72341,-1.73618 -0.65107,-0.65107 -1.51916,-0.79575 z m 2.60427,-9.98305 q 6.0043,0 8.97028,2.893638 2.96598,2.893638 2.96598,8.029842 0,3.03832 -1.5915,6.36601 -1.5915,3.32768 -5.49792,6.80005 -3.90641,3.40002 -10.48943,7.01707 -6.51069,3.5447 -16.34906,7.16175 0.36171,2.09789 2.24257,3.32769 1.88087,1.15745 4.99153,1.15745 3.32768,0 7.08941,-0.94043 3.83407,-1.01277 7.52346,-2.53193 3.76173,-1.51916 7.30643,-3.25535 3.54471,-1.80852 6.36601,-3.40002 2.89364,-1.5915 4.7745,-2.74896 1.95321,-1.15745 2.60427,-1.44682 0.65107,-0.43404 1.15746,-0.50638 0.57873,-0.0723 1.01277,-0.0723 0.86809,0 1.44682,0.43404 0.57873,0.36171 0.94043,0.94043 0.43405,0.50639 0.57873,1.15746 0.14468,0.57873 0.14468,1.01277 0,0.65107 -0.14468,1.5915 -0.14468,0.86809 -1.08511,2.02555 -0.36171,0.3617 -2.45959,1.95321 -2.02555,1.5915 -5.28089,3.76172 -3.25535,2.17023 -7.5958,4.62983 -4.26812,2.38725 -9.11496,4.41279 -4.77451,2.02555 -9.98305,3.32769 -5.20855,1.37448 -10.27242,1.37448 -4.34046,0 -7.74048,-1.66385 -3.32768,-1.66384 -5.71494,-4.48514 -2.31491,-2.82129 -3.5447,-6.51068 -1.2298,-3.68939 -1.2298,-7.74048 0,-3.11066 1.2298,-6.80005 1.22979,-3.76173 3.5447,-7.52346 2.31491,-3.76173 5.6426,-7.30644 3.40002,-3.617044 7.5958,-6.366001 4.19577,-2.748956 9.1873,-4.412798 5.06387,-1.663841 10.7788,-1.663841 z"
         style="font-style:normal;font-variant:normal;font-weight:normal;font-stretch:normal;font-family:Damion;-inkscape-font-specification:Damion;fill:#ffffff;stroke-width:0.77163678"
         id="path2083" />
      <path
         d="m 375.62542,101.4397 q 2.8213,-1.736185 5.78728,-3.183004 3.03832,-1.446819 5.85962,-2.459593 2.82129,-1.085114 5.35323,-1.663842 2.60427,-0.651068 4.62982,-0.651068 3.25534,0 4.99152,1.591501 1.80853,1.51916 1.80853,5.208546 0,0.79575 -0.0723,1.73618 -0.0723,0.8681 -0.28937,1.88087 -0.3617,1.88086 -2.17023,4.4128 -1.80852,2.53193 -4.26811,5.28089 -2.38725,2.74895 -5.20855,5.57025 -2.74896,2.74896 -5.13621,5.13621 -2.31491,2.31491 -3.90641,4.05109 -1.51916,1.73618 -1.51916,2.38725 0,0.57873 0.0723,0.79575 0.0723,0.21703 0.65107,0.21703 3.90641,-1.66385 8.68091,-3.97876 4.84685,-2.38725 9.62135,-4.84684 4.7745,-2.45959 9.04262,-4.7745 4.26812,-2.38725 7.2341,-4.12344 0.65106,-0.3617 1.30213,-0.57872 0.72341,-0.28937 1.30214,-0.28937 1.30214,0 2.17023,0.86809 0.86809,0.86809 0.86809,2.31491 0,1.66385 -1.44682,3.83407 -1.37448,2.09789 -4.70216,4.4128 -2.53193,1.5915 -5.71494,3.61705 -3.11066,1.9532 -6.58302,4.12343 -3.40003,2.09789 -6.94473,4.12344 -3.47237,2.02554 -6.72771,3.61704 -3.25535,1.59151 -6.14898,2.60428 -2.8213,0.94043 -4.91919,0.94043 -4.99152,0 -7.52346,-2.38725 -2.45959,-2.38725 -2.45959,-6.14898 0,-0.57873 0.0723,-0.86809 0.50639,-3.183 1.88087,-6.14898 1.37447,-2.96598 3.11066,-5.6426 1.73618,-2.67661 3.61704,-5.06386 1.88087,-2.4596 3.40003,-4.55748 1.5915,-2.17023 2.60427,-3.97876 1.01278,-1.80852 1.01278,-3.32768 0,-0.3617 -0.14469,-0.72341 -0.14468,-0.3617 -0.65106,-0.3617 -0.86809,0 -2.89364,0.65106 -1.95321,0.65107 -4.19578,1.73619 -2.24257,1.08511 -4.26811,2.53193 -2.02555,1.37448 -2.89364,2.96598 -1.15746,2.02555 -2.67662,5.13621 -1.51916,3.11066 -3.183,6.51068 -1.5915,3.40003 -3.11066,6.72771 -1.51916,3.32769 -2.60427,5.71494 -0.86809,2.09788 -2.31491,3.76173 -1.37448,1.66384 -3.03832,2.82129 -1.66385,1.15746 -3.40003,1.80853 -1.73618,0.65107 -3.183,0.65107 -1.66384,0 -2.67661,-0.8681 -0.94044,-0.86809 -0.94044,-2.82129 0,-0.79575 0.21703,-1.95321 0.28936,-1.2298 1.08511,-2.67661 1.30214,-2.4596 2.60427,-5.35323 1.37448,-2.89364 3.11067,-6.58303 1.73618,-3.76173 3.97875,-8.53623 2.31491,-4.84685 5.42557,-11.14051 -1.01277,-0.86809 -1.73618,-2.09789 -0.65107,-1.30213 -0.65107,-3.183 0,-1.736182 0.72341,-2.965978 0.72341,-1.302137 1.9532,-2.097887 1.2298,-0.795751 2.8213,-1.157456 1.66384,-0.434045 3.47237,-0.434045 1.88086,0 3.76172,0.361705 1.88087,0.289363 3.32769,0.940432 1.51916,0.651068 2.45959,1.591501 0.94043,0.940432 0.94043,2.170228 0,0.217023 -0.14468,0.578728 -0.14468,0.361705 -0.3617,0.79575 -0.14469,0.434042 -0.28937,0.795752 -0.14468,0.3617 -0.14468,0.57873 0,0.14468 0.0723,0.14468 h 0.0723 z"
         style="font-style:normal;font-variant:normal;font-weight:normal;font-stretch:normal;font-family:Damion;-inkscape-font-specification:Damion;fill:#ffffff;stroke-width:0.77163678"
         id="path2085" />
      <path
         d="m 439.06845,103.75461 q -3.40003,0 -6.58303,1.73618 -3.11066,1.66384 -5.57025,4.48514 -2.38726,2.74896 -3.83407,6.29366 -1.44682,3.47237 -1.44682,7.16176 0,1.37447 0.21702,3.03832 0.21702,1.5915 0.86809,3.03832 0.72341,1.37447 2.02555,2.31491 1.30213,0.94043 3.47236,0.94043 3.32769,0 6.43835,-1.73618 3.183,-1.80853 5.64259,-4.62982 2.45959,-2.89364 3.90641,-6.51069 1.44682,-3.61705 1.44682,-7.30644 0,-1.44682 -0.21702,-2.96598 -0.14468,-1.5915 -0.86809,-2.89363 -0.65107,-1.30214 -1.95321,-2.09789 -1.30213,-0.86809 -3.5447,-0.86809 z m 3.76172,-12.732009 q 2.74896,0 5.85962,0.723409 3.183,0.72341 5.85962,2.459592 2.67661,1.736183 4.4128,4.629821 1.80852,2.821297 1.80852,7.017077 0,2.17022 -0.57873,4.99152 -0.57872,2.74896 -1.73618,5.78728 0.72341,0.86809 1.66384,1.22979 0.94043,0.36171 2.02555,0.36171 1.51916,0 3.32768,-0.86809 1.88087,-0.86809 3.83407,-2.24257 1.95321,-1.37448 3.90641,-3.11066 1.95321,-1.73619 3.68939,-3.47237 1.73619,-1.73618 3.11066,-3.25534 1.44682,-1.5915 2.38725,-2.67662 0.50639,-0.50638 1.2298,-0.50638 1.01277,0 1.80852,1.08511 0.79576,1.01277 0.79576,2.89364 0,1.88086 -1.15746,4.34046 -1.08511,2.45959 -4.12343,5.1362 -1.73619,1.88087 -3.97876,4.34046 -2.24257,2.45959 -4.7745,4.62982 -2.53193,2.17023 -5.28089,3.68939 -2.74895,1.51916 -5.49791,1.51916 -1.88087,0 -3.68939,-0.57873 -1.73618,-0.57873 -3.54471,-1.88086 -2.60427,4.05109 -5.93195,7.37877 -3.32769,3.32769 -7.45112,5.71494 -4.05109,2.38725 -8.8256,3.68939 -4.70216,1.37448 -10.05539,1.37448 -2.02555,0 -4.70216,-0.79576 -2.67662,-0.79575 -5.13621,-2.60427 -2.38725,-1.88086 -4.05109,-4.84684 -1.66384,-2.96598 -1.66384,-7.2341 0,-2.89364 0.94043,-6.94473 0.94043,-4.05109 2.8213,-8.31921 1.9532,-4.34046 4.84684,-8.53623 2.96598,-4.26812 7.01707,-7.595801 4.05109,-3.400024 9.25964,-5.425571 5.20855,-2.097887 11.57455,-2.097887 z"
         style="font-style:normal;font-variant:normal;font-weight:normal;font-stretch:normal;font-family:Damion;-inkscape-font-specification:Damion;fill:#ffffff;stroke-width:0.77163678"
         id="path2087" />
    </g>
    <g
       id="g96"
       transform="matrix(2.3903173,0,0,-2.3903173,419.48018,114.15088)"
       style="fill:#ffffff">
      <path
         d="m -4.568033,3.2445987 c -8.076688,-1.3965846 -16.060723,-3.10502786 -23.876399,-5.371653 -5.789724,-1.6835849 -11.618996,-3.2971147 -17.382732,-5.0349359 -5.933224,-1.7988371 -11.800913,-3.7411748 -17.70702,-5.5931178 -5.056404,-1.580762 -10.113939,-3.158134 -15.191812,-4.698219 -4.68579,-1.403364 -9.404347,-2.755882 -14.112735,-4.118569 -3.986368,-1.149131 -7.950139,-2.359278 -11.985089,-3.370559 -4.705,-1.1706 -9.4665,-2.215779 -14.23025,-3.189772 -7.3106,-1.523136 -14.66866,-2.64176 -22.0753,-2.538937 -3.97846,0.05198 -7.82359,0.398863 -11.30149,1.505057 -3.79428,1.215797 -6.55016,3.178473 -8.60323,5.617976 -0.57852,0.677954 -1.1254,1.384156 -1.56494,2.124255 -1.05648,1.770589 -1.65421,3.644001 -1.4384,5.681252 0.0215,0.160449 -0.21242,0.310729 -0.32315,0.465528 -0.22034,-0.09378 -0.50734,-0.164968 -0.64067,-0.305079 -1.00337,-0.946875 -2.14459,-1.857593 -2.90729,-2.876783 -2.9717,-3.989758 -3.79202,-8.063129 -2.83611,-12.122942 0.33785,-1.442911 0.75705,-2.895992 1.52201,-4.202183 0.96043,-1.674545 1.99657,-3.371689 3.5649,-4.745675 3.60559,-3.158135 8.64843,-5.022507 14.59974,-5.910627 4.31743,-0.645186 8.76368,-0.912977 13.35342,-0.607898 3.92649,0.259882 7.8654,0.43163 11.77041,0.941226 9.81677,1.281332 19.39286,3.449654 28.611905,6.673324 5.289169,1.836124 10.646133,3.560386 15.874285,5.489165 6.700442,2.463231 13.298062,5.080132 19.936358,7.642797 6.493666,2.511819 12.964734,5.050755 19.475349,7.542235 3.598804,1.381895 7.205518,2.766051 10.873247,4.019135 4.493703,1.540085 9.017914,3.032713 13.603141,4.3784511 4.97618,1.4688996 9.9952967,2.8993819 15.0867288,4.0778913 9.0393823,2.0926171 18.1409102,3.1716933 27.1486552,2.2361172 3.453044,-0.3559256 5.821362,-1.5491241 6.362595,-4.0157456 0.131071,-0.6304969 0.137851,-1.2994112 0.205646,-1.9378175 0.04294,-0.4406699 0.09717,-0.87908 0.157059,-1.4609905 1.527656,0.9717339 3.204461,3.4937216 3.564907,4.9581015 0.884729,3.555867 -1.32766,6.01118925 -5.221374,7.6642663 C 24.084549,4.5632186 17.390886,5.2343927 10.365027,4.9677309 5.3899765,4.7688645 0.39910755,4.0988203 -4.568033,3.2445987"
         style="fill:#ffffff;fill-opacity:1;fill-rule:nonzero;stroke:none;stroke-width:1.12992275"
         id="path98"
         inkscape:connector-curvature="0" />
    </g>
    <g
       id="g100"
       transform="matrix(2.700874,0,0,-2.700874,440.00633,144.54261)"
       style="fill:#ffffff">
      <path
         d="m 0,0 c -13.594,-1.836 -26.581,-5.446 -38.998,-10.483 -6.081,-2.462 -11.941,-5.249 -17.127,-8.73 -4,-2.678 -7.676,-5.556 -9.646,-9.283 -0.771,-1.459 -1.505,-2.916 -1.161,-4.372 0.23,-0.998 0.598,-2.134 1.454,-2.837 3.103,-2.533 9.004,-1.918 12.051,-0.135 1.929,1.116 3.775,2.362 5.421,3.697 4.101,3.318 8.017,6.746 12.086,10.084 2.121,1.74 4.258,3.496 6.639,5.035 2.731,1.753 5.642,3.392 8.661,4.87 4.207,2.053 8.477,4.115 12.94,5.804 5.434,2.05 11.101,3.705 16.664,5.538 0.702,0.234 1.402,0.484 2.097,0.729 0.006,0.094 0.008,0.172 0.011,0.258 C 10.473,0.296 9.873,0.524 9.234,0.502 6.165,0.39 3.057,0.417 0,0"
         style="fill:#ffffff;fill-opacity:1;fill-rule:nonzero;stroke:none"
         id="path102"
         inkscape:connector-curvature="0" />
    </g>
    <path
       style="fill:#ffffff;stroke-width:0.26458332"
       d="m 428.85178,-48.539707 c -17.88214,-7.75975 -21.65627,-9.74691 -26.93726,-14.18307 -7.56145,-6.35181 -13.1804,-16.185989 -14.89661,-26.071759 -0.46236,-2.66329 -0.55946,-4.95379 -0.76854,-18.129674 -0.27331,-17.22349 -0.29023,-39.11399 -0.0361,-46.69896 0.20313,-6.06269 0.44662,-6.84087 2.46557,-7.87986 2.14865,-1.10573 5.18684,-1.171 48.77187,-1.04769 44.37819,0.12556 42.25822,0.0506 44.18109,1.56309 1.61613,1.27124 1.55425,0.34698 1.66219,24.82696 0.11152,25.29156 -0.22407,43.795484 -0.86053,47.448134 -0.58499,3.35723 -2.2893,8.37392 -4.07473,11.9941 -2.38404,4.833929 -4.44182,7.710959 -8.2144,11.484739 -5.46083,5.46258 -8.86655,7.43376 -26.2625,15.20036 -4.3832,1.95691 -8.3377,3.62311 -8.78778,3.70266 -0.64105,0.1133 -1.99338,-0.36527 -6.24229,-2.20903 z m 9.0547,-11.16838 c 6.37558,-1.29926 12.42396,-3.94002 13.48066,-5.88574 0.22082,-0.4066 0.3268,-2.63848 0.34814,-7.33143 0.0277,-6.102019 0.0992,-7.126199 0.74743,-10.715619 1.30776,-7.24114 1.87814,-9.22501 4.29793,-14.948961 1.49594,-3.538623 1.76402,-5.041723 1.85981,-10.427683 0.0489,-2.75205 0.20228,-5.11702 0.34076,-5.2555 0.31278,-0.31278 1.65695,-0.13663 4.39869,0.57646 3.93897,1.02446 7.95822,0.62318 11.46961,-1.14513 2.26569,-1.14098 3.47901,-2.1477 3.48048,-2.88781 0.002,-0.86574 -2.76912,-4.76753 -4.45915,-6.27922 -2.17147,-1.94232 -5.19202,-3.35994 -8.25471,-3.87413 -2.99918,-0.50352 -3.8206,-0.92751 -3.38258,-1.74597 0.16419,-0.30679 1.57434,-1.88886 3.13367,-3.51572 4.25737,-4.44173 7.22957,-9.25858 7.58981,-12.30031 0.12849,-1.08489 0.0768,-1.31704 -0.32764,-1.47225 -0.33454,-0.12837 -2.77311,0.98566 -8.03984,3.6729 -10.80753,5.51433 -15.38928,7.21569 -21.27826,7.90136 -3.65255,0.42527 -16.47481,0.15243 -19.22201,-0.40903 -4.63089,-0.94642 -9.14787,-2.75866 -19.57477,-7.85351 -3.85388,-1.8831 -7.24716,-3.38942 -7.54062,-3.34737 -0.98912,0.14173 -0.6175,2.07601 1.03132,5.36812 1.73779,3.46973 3.36999,5.68762 6.83563,9.28852 1.41883,1.47421 2.57969,2.79665 2.57969,2.93878 0,0.65138 -1.12381,1.19191 -2.95574,1.42166 -3.56131,0.44664 -6.57009,1.80741 -9.30417,4.20796 -1.12421,0.98707 -3.05905,3.59887 -3.76277,5.07928 -0.43181,0.90838 -0.43385,1.02156 -0.0296,1.63859 0.50589,0.77208 3.12551,2.29683 5.36316,3.12162 2.26867,0.83622 7.92759,0.83877 10.42449,0.005 1.92217,-0.64209 3.04932,-0.73414 3.33474,-0.27234 0.10503,0.16995 0.20593,2.40237 0.22422,4.96094 0.0382,5.34337 0.11438,5.71359 2.29109,11.136373 3.4538,8.604391 5.29145,19.412241 4.74291,27.89474 -0.22374,3.45994 -0.054,4.529 0.85477,5.38273 1.50636,1.41514 9.31211,4.48202 13.29082,5.22196 2.56274,0.47661 2.9948,0.4659 6.01199,-0.14897 z m -14.98293,-6.8808 c -2.16069,-1.89711 -2.32276,-6.02492 -0.43059,-10.966579 3.62623,-9.47034 5.02341,-15.3281 5.57967,-23.393064 0.4573,-6.63013 -0.13331,-13.16514 -1.89498,-20.96795 -0.72152,-3.19574 -0.77491,-3.7007 -0.46011,-4.35228 1.16333,-2.40789 8.79986,-3.62974 13.92248,-2.2276 1.20411,0.32958 2.57333,0.85908 3.04271,1.17666 0.77182,0.5222 0.85255,0.70269 0.84428,1.88749 -0.005,0.72055 -0.32656,2.6793 -0.71453,4.35279 -1.3935,6.01086 -1.65628,8.57044 -1.65695,16.13958 -5.3e-4,5.593453 0.0982,7.600063 0.48809,9.921874 0.76537,4.55786 1.94051,8.87067 3.77019,13.83675 2.11597,5.743099 2.48797,7.183879 2.48797,9.636079 0,3.28032 -1.1353,5.49905 -2.81381,5.49905 -0.59671,0 -0.62578,-0.0837 -0.62578,-1.80151 0,-1.02827 -0.14195,-1.9919 -0.33073,-2.24507 -0.63894,-0.8569 -9.35311,-1.25464 -15.52334,-0.70853 -1.66198,0.1471 -3.17521,0.39479 -3.36273,0.55042 -0.20942,0.1738 -0.3706,1.06384 -0.4178,2.3071 -0.0913,2.40515 -0.43181,2.64742 -1.90404,1.35479 z m 18.09906,-74.284643 c 0,-0.40927 -0.35143,-1.78377 -0.78094,-3.05445 -0.42952,-1.27068 -0.71554,-2.48078 -0.63559,-2.6891 0.0799,-0.20833 1.24418,-1.04933 2.5872,-1.8689 4.04988,-2.47139 3.91102,-2.90929 -1.01171,-3.19045 -2.3802,-0.13594 -3.14975,-0.2741 -3.46459,-0.62199 -0.22261,-0.24598 -0.69231,-1.43634 -1.04377,-2.64525 -0.35147,-1.20891 -0.86533,-2.42432 -1.14192,-2.70091 -0.48506,-0.48506 -0.52279,-0.48601 -1.06422,-0.0267 -0.30873,0.26192 -0.99696,1.57847 -1.5294,2.92567 -0.53244,1.34719 -1.0815,2.51955 -1.22014,2.60523 -0.13864,0.0857 -1.70335,0.14405 -3.47714,0.12971 -1.77379,-0.0143 -3.38664,0.0784 -3.58411,0.206 -0.6704,0.43333 -0.0481,1.21562 2.23661,2.81169 1.24985,0.87312 2.37172,1.77164 2.49305,1.99671 0.14507,0.26909 -0.12975,1.27625 -0.80264,2.9415 -1.06768,2.64226 -1.12963,3.66075 -0.22269,3.66075 0.278,0 1.59169,-0.65485 2.91931,-1.45521 1.32763,-0.80037 2.71507,-1.45521 3.0832,-1.45521 0.38062,0 1.68274,0.68474 3.01882,1.5875 2.65704,1.7953 3.64067,2.02316 3.64067,0.84338 z"
       id="path1141"
       inkscape:connector-curvature="0" />
  </g>
</svg>
